<?xml version="1.0" encoding="utf-8"?>
<!-- Generator: Adobe Illustrator 24.0.1, SVG Export Plug-In . SVG Version: 6.00 Build 0)  -->
<svg version="1.1" id="Layer_1" xmlns="http://www.w3.org/2000/svg" xmlns:xlink="http://www.w3.org/1999/xlink" x="0px" y="0px"
	 viewBox="0 0 480 200" style="enable-background:new 0 0 480 200;" xml:space="preserve">
<style type="text/css">
	.st0{fill:none;}
	.st1{fill:#FFDE80;}
	.st2{opacity:0.5;fill:#73CDE5;}
	.st3{fill:#A4C3CD;}
	.st4{fill:#C2D2D8;}
	.st5{fill:#E6F9FF;}
	.st6{fill:#FFA85A;}
	.st7{fill:#E0C4B4;}
	.st8{fill:#F5B3D1;}
	.st9{fill:#19C6FF;}
	.st10{fill:#B2EBFF;}
	.st11{fill:#666666;}
</style>
<g>
	<rect x="0" y="0" class="st0" width="480" height="200"/>
	<g>
		<g>
			<path class="st1" d="M204,188.4c-1.8,0.3-3.5-0.6-4.4-2.2L141.1,80.3c-1.4-2.5-0.5-5.8,2.1-7.2l81.4-44.9l57.7,104.6
				c0,0-4.5,14.4-10.8,17.9C257.7,158.3,209.2,187.5,204,188.4z"/>
			<path class="st2" d="M219.4,56.2l-60.2,33.2c-0.3,0.2-0.7,0.1-0.9-0.3l-1.9-3.5c-0.2-0.3-0.1-0.7,0.3-0.9l60.2-33.2
				c0.3-0.2,0.7-0.1,0.9,0.3l1.9,3.5C219.8,55.6,219.7,56,219.4,56.2z"/>
			<path class="st2" d="M234,69l-55.1,30.4c-0.3,0.2-0.7,0.1-0.9-0.3l-1.9-3.5c-0.2-0.3-0.1-0.7,0.3-0.9l55.1-30.4
				c0.3-0.2,0.7-0.1,0.9,0.3l1.9,3.5C234.4,68.4,234.3,68.8,234,69z"/>
			<path class="st2" d="M240.9,81.5l-66,36.4c-0.3,0.2-0.7,0.1-0.9-0.3l-1.9-3.5c-0.2-0.3-0.1-0.7,0.3-0.9l66-36.4
				c0.3-0.2,0.7-0.1,0.9,0.3l1.9,3.5C241.3,80.9,241.2,81.3,240.9,81.5z"/>
			<path class="st2" d="M247.7,93.9l-66,36.4c-0.3,0.2-0.7,0.1-0.9-0.3l-1.9-3.5c-0.2-0.3-0.1-0.7,0.3-0.9l66-36.4
				c0.3-0.2,0.7-0.1,0.9,0.3L248,93C248.2,93.3,248.1,93.7,247.7,93.9z"/>
			<path class="st2" d="M238.8,115.1l-50.2,27.7c-0.3,0.2-0.7,0.1-0.9-0.3l-1.9-3.5c-0.2-0.3-0.1-0.7,0.3-0.9l50.2-27.7
				c0.3-0.2,0.7-0.1,0.9,0.3l1.9,3.5C239.3,114.5,239.2,114.9,238.8,115.1z"/>
			<path class="st2" d="M261.5,118.8l-55.1,30.4c-0.3,0.2-0.7,0.1-0.9-0.3l-1.9-3.5c-0.2-0.3-0.1-0.7,0.3-0.9l55.1-30.4
				c0.3-0.2,0.7-0.1,0.9,0.3l1.9,3.5C261.9,118.2,261.8,118.6,261.5,118.8z"/>
			<path class="st2" d="M268.3,131.3l-66,36.4c-0.3,0.2-0.7,0.1-0.9-0.3l-1.9-3.5c-0.2-0.3-0.1-0.7,0.3-0.9l66-36.4
				c0.3-0.2,0.7-0.1,0.9,0.3l1.9,3.5C268.8,130.7,268.7,131.1,268.3,131.3z"/>
			<path class="st3" d="M282.3,132.9c-0.2,6.9-6.5,15.2-10.8,17.9c0,0,5.8-5.7,1-14.2C271.5,135,282.3,132.9,282.3,132.9z"/>
		</g>
		<g>
			<path class="st4" d="M317,61.5c-0.9,1.1-0.9,2.6,0,3.7l0,0c0.2,0.2,0.3,0.4,0.5,0.5c1.3,1,3.2,0.8,4.2-0.5l4.7-5.9
				c0.5-0.6,0.7-1.4,0.6-2.2c-0.1-0.7-0.4-1.3-0.8-1.7c-0.1-0.1-0.2-0.2-0.3-0.3c-1.3-1-3.2-0.8-4.2,0.5L317,61.5z"/>
			<path class="st4" d="M326.9,76.6c0.1,0.3,0.3,0.6,0.5,0.9c0.8,1,2.1,1.4,3.4,1l6.7-2.3c0.8-0.3,1.4-0.8,1.7-1.5
				c0.3-0.7,0.4-1.5,0.1-2.3c-0.1-0.4-0.4-0.8-0.7-1.1c-0.2-0.2-0.5-0.5-0.8-0.6c-0.7-0.4-1.5-0.4-2.3-0.1l-6.7,2.3
				c-0.8,0.3-1.4,0.8-1.7,1.5C326.7,75.1,326.6,75.9,326.9,76.6z"/>
			<path class="st4" d="M302.5,56.8c0,0.7,0.2,1.3,0.6,1.8c0.6,0.7,1.4,1.2,2.4,1.2c1.7,0,3-1.4,3-3l0-8c0-0.8-0.3-1.5-0.9-2.1
				c-0.6-0.6-1.3-0.9-2.2-0.9c-1.7,0-3,1.4-3,3L302.5,56.8z"/>
		</g>
		<g>
			<path class="st5" d="M303.8,149.1c1.6-1.3,2.2-3.4,1.5-5.3L261.4,15.6c-1.1-3.1-4.4-4.7-7.5-3.7l-94.4,32.3
				c-2.2,0.8-3.4,3.2-2.7,5.4l42,122.6c0,0,15.3,7.1,23,4.5C238.3,171,299.1,152.8,303.8,149.1z"/>
			<path class="st2" d="M182.5,62.3l72.9-24.9c0.4-0.1,0.6-0.6,0.5-0.9l-1.4-4.2c-0.1-0.4-0.6-0.6-0.9-0.5l-72.9,24.9
				c-0.4,0.1-0.6,0.6-0.5,0.9l1.4,4.2C181.7,62.3,182.1,62.5,182.5,62.3z"/>
			<path class="st2" d="M182.1,84.1l66.7-22.8c0.4-0.1,0.6-0.6,0.5-0.9l-1.4-4.2c-0.1-0.4-0.6-0.6-0.9-0.5l-66.7,22.8
				c-0.4,0.1-0.6,0.6-0.5,0.9l1.4,4.2C181.3,84,181.8,84.2,182.1,84.1z"/>
			<path class="st2" d="M187.3,99.2l79.9-27.3c0.4-0.1,0.6-0.6,0.5-0.9l-1.4-4.2c-0.1-0.4-0.6-0.6-0.9-0.5l-79.9,27.3
				c-0.4,0.1-0.6,0.6-0.5,0.9l1.4,4.2C186.5,99.1,186.9,99.3,187.3,99.2z"/>
			<path class="st2" d="M236.2,99.3l36.3-12.5c0.3-0.1,0.4-0.4,0.3-0.7l-1.6-4.6c-0.1-0.3-0.4-0.4-0.7-0.3l-36.3,12.5
				c-0.3,0.1-0.4,0.4-0.3,0.7l1.6,4.6C235.6,99.3,236,99.4,236.2,99.3z"/>
			<path class="st2" d="M241.5,114.4l36.1-12.4c0.3-0.1,0.5-0.5,0.4-0.8l-1.5-4.4c-0.1-0.3-0.5-0.5-0.8-0.4l-36.1,12.4
				c-0.3,0.1-0.5,0.5-0.4,0.8l1.5,4.4C240.8,114.3,241.1,114.5,241.5,114.4z"/>
			<path class="st2" d="M246.5,129.5l23.2-8c0.3-0.1,0.4-0.4,0.3-0.6l-1.6-4.7c-0.1-0.3-0.4-0.4-0.6-0.3l-23.2,8
				c-0.3,0.1-0.4,0.4-0.3,0.6l1.6,4.7C246,129.4,246.2,129.6,246.5,129.5z"/>
			<path class="st2" d="M251.7,144.5l36.3-12.5c0.3-0.1,0.4-0.4,0.3-0.7l-1.6-4.6c-0.1-0.3-0.4-0.4-0.7-0.3L249.8,139
				c-0.3,0.1-0.4,0.4-0.3,0.7l1.6,4.6C251.1,144.5,251.4,144.6,251.7,144.5z"/>
			<path class="st3" d="M198.8,172.2c5.8,5.1,17.5,6.1,23,4.5c0,0-9.1,0.6-12.5-9.9C208.7,164.9,198.8,172.2,198.8,172.2z"/>
			<path class="st6" d="M240.8,148.2L209.3,159c-1.1,0.4-2.3-0.2-2.7-1.3l-16-46.8c-0.4-1.1,0.2-2.3,1.3-2.7l31.6-10.8
				c1.1-0.4,2.3,0.2,2.7,1.3l16,46.8C242.6,146.6,242,147.8,240.8,148.2z"/>
		</g>
		<g>
			<path class="st7" d="M336.4,122.1l-12.5,7l9.7,5.5c1,0.6,2.5-0.3,2.5-1.4L336.4,122.1z"/>
			<path class="st8" d="M252.8,61.9l5.9-13.1l-4.7-2.1c-3.3-1.5-7.1,0-8.5,3.2l-0.6,1.3c-1.5,3.3,0,7.1,3.2,8.5L252.8,61.9z"/>
			<polygon class="st9" points="301.9,90.1 323.9,129.1 336.4,122.1 314.6,83.2 314.2,86.2 310.2,85.6 307.8,92 			"/>
			<polygon class="st9" points="299,67 260.4,49.6 254.5,62.7 293,80 298.7,78 297,71.5 300.6,69.5 			"/>
			
				<rect x="248.5" y="50.5" transform="matrix(-0.4103 0.912 -0.912 -0.4103 411.131 -155.1269)" class="st10" width="14.4" height="9.8"/>
			<path class="st11" d="M336.2,130.1l-0.1,3.2c0,1.1-1.5,2-2.5,1.4l-2.7-1.6L336.2,130.1z"/>
		</g>
	</g>
</g>
</svg>
