<svg version="1.1" id="Layer_1" xmlns="http://www.w3.org/2000/svg" x="0" y="0" viewBox="0 0 570 250" style="enable-background:new 0 0 570 250" xml:space="preserve">
  <style>
    .st0{fill:#6264a7}.st1{fill:#e1dfdd}.st3{fill:#f3f2f1}.st4{fill:#fff}.st5{fill:#b4e0f5}.st6{fill:#e2e2f6}.st7{opacity:.6;fill:#b3afab;enable-background:new}.st9{fill:#ee8f94}.st12{fill:none}.st13{fill:#e0bb95}.st14{fill:#594539}.st15{fill:#9b643d}.st16{fill:#33312d}.st17{fill:#bf8f68}.st19{fill:#c2badb}.st20,.st21{fill:#8b8cc4}.st21{opacity:.6;enable-background:new}.st22{fill:#d9dadd}.st28{fill:#605d5a}.st33{fill:#cdd4e0;stroke:#cdd4e0;stroke-width:.2576;stroke-miterlimit:10}.st35{fill:#2b2b2a}.st36{fill:#e3646a}.st38{fill:#797673}.st39{fill:#3a312e}.st40{fill:#8b8cc7}.st41{fill:#f7c6c8}.st43{fill:#b3afab}.st45{fill:#be906b}.st52{fill:#fadcbd}.st58{fill:#484643}.st59{fill:#dfbc97}.st60{fill:#f9ddbf}.st73{fill:#c3c3e1}.st77{fill:#c8c6c4}.st83{fill:#e0bb95}.st83,.st84{display:none}.st85{fill:#e0bb95}.st85,.st86{display:inline}.st88{display:none;fill:#c4a07c}.st89,.st94,.st95{display:none;fill:#dddbd8}.st94,.st95{fill:#8b8cc7}.st95{fill:#e1dfdd}
  </style>
  <path class="st0" d="M120.8 28.7h-.8l-.6-1c-.1-.1-.1-.2-.2-.2l-.2-.2c-.1 0-.1-.1-.2-.1h-.5v1.6h-.6v-3.9h1.3c.2 0 .4 0 .5.1.2 0 .3.1.4.2l.3.3c.1.1.1.3.1.5 0 .1 0 .3-.1.4 0 .1-.1.2-.2.3-.1.1-.2.2-.3.2-.1.1-.2.1-.4.1.1 0 .1.1.2.1s.1.1.1.1c0 .1.1.1.1.2s.1.1.2.2l.9 1.1zm-2.4-3.4v1.3h.8c.1 0 .2-.1.2-.1.1-.1.1-.1.1-.2s.1-.2.1-.3c0-.2-.1-.3-.2-.4-.1-.1-.3-.2-.5-.2l-.5-.1zM123.4 27.5h-1.9c0 .3.1.5.2.6.2.1.4.2.6.2.3 0 .6-.1.8-.3v.5c-.3.2-.6.2-1 .2s-.7-.1-1-.4c-.2-.3-.4-.6-.4-1.1 0-.4.1-.8.4-1.1.3-.3.6-.4 1-.4s.7.1.9.4.3.6.3 1l.1.4zm-.6-.5c0-.2-.1-.4-.2-.5-.1-.1-.3-.2-.4-.2-.2 0-.3.1-.5.2-.1.1-.2.3-.2.5h1.3zM126 28.6c-.2.1-.5.2-.8.2-.4 0-.8-.1-1-.4-.3-.3-.4-.6-.4-1 0-.5.1-.8.4-1.1.3-.3.6-.4 1.1-.4.3 0 .5 0 .7.1v.6c-.2-.1-.4-.2-.6-.2-.3 0-.5.1-.7.3-.2.2-.3.4-.3.7 0 .3.1.5.2.7.2.2.4.3.6.3.2 0 .4-.1.6-.2.2-.2.2.4.2.4zM129 27.5h-1.9c0 .3.1.5.2.6.2.1.4.2.6.2.3 0 .6-.1.8-.3v.5c-.3.2-.6.2-1 .2s-.7-.1-1-.4c-.2-.3-.4-.6-.4-1.1 0-.4.1-.8.4-1.1.3-.3.6-.4 1-.4s.7.1.9.4.3.6.3 1l.1.4zm-.6-.5c0-.2-.1-.4-.2-.5-.1-.1-.3-.2-.4-.2-.2 0-.3.1-.5.2-.1.1-.2.3-.2.5h1.3zM132.1 28.7h-.6v-1.6c0-.5-.2-.8-.6-.8-.2 0-.4.1-.5.2-.1.1-.2.3-.2.5v1.6h-.6v-2.8h.6v.5c.2-.4.5-.5.9-.5.3 0 .5.1.7.3.2.2.2.5.2.9l.1 1.7zM134.4 28.7c-.1.1-.3.1-.5.1-.5 0-.8-.3-.8-.8v-1.6h-.5v-.5h.5v-.6l.6-.2v.8h.7v.5h-.7v1.4c0 .2 0 .3.1.4.1.1.2.1.3.1.1 0 .2 0 .3-.1v.5zM146.1 28.5c-.3.2-.7.2-1.1.2-.6 0-1-.2-1.4-.5-.3-.4-.5-.8-.5-1.4 0-.6.2-1.1.6-1.5.4-.4.9-.6 1.5-.6.4 0 .7.1.9.2v.6c-.3-.2-.6-.2-.9-.2-.4 0-.8.1-1 .4-.3.3-.4.6-.4 1.1 0 .4.1.8.4 1 .2.3.6.4 1 .4s.7-.1 1-.3l-.1.6zM148 28.8c-.4 0-.8-.1-1-.4-.3-.3-.4-.6-.4-1 0-.5.1-.8.4-1.1.3-.3.6-.4 1.1-.4.4 0 .8.1 1 .4.2.3.4.6.4 1.1 0 .4-.1.8-.4 1.1-.3.1-.7.3-1.1.3zm0-2.4c-.2 0-.4.1-.6.3-.1.2-.2.4-.2.7 0 .3.1.5.2.7.1.2.3.3.6.3.2 0 .4-.1.6-.2.1-.2.2-.4.2-.7 0-.3-.1-.5-.2-.7-.1-.4-.3-.4-.6-.4zM152.6 28.7h-.6v-1.6c0-.5-.2-.8-.6-.8-.2 0-.4.1-.5.2-.1.1-.2.3-.2.5v1.6h-.6v-2.8h.6v.5c.2-.4.5-.5.9-.5.3 0 .5.1.7.3s.2.5.2.9c.1 0 .1 1.7.1 1.7zM154.8 28.7c-.1.1-.3.1-.5.1-.5 0-.8-.3-.8-.8v-1.6h-.5v-.5h.5v-.6l.6-.2v.8h.7v.5h-.7v1.4c0 .2 0 .3.1.4.1.1.2.1.3.1.1 0 .2 0 .3-.1v.5zM157.5 28.7h-.6v-.4c-.2.3-.5.5-.8.5-.3 0-.5-.1-.6-.2-.2-.1-.2-.3-.2-.6 0-.5.3-.8.9-.9l.8-.1c0-.4-.2-.6-.6-.6-.3 0-.6.1-.9.3v-.6c.3-.2.6-.3 1-.3.7 0 1.1.3 1.1 1l-.1 1.9zm-.6-1.4l-.6.1c-.2 0-.3.1-.4.1-.1.1-.1.2-.1.3 0 .1 0 .2.1.3.1.1.2.1.3.1.2 0 .4-.1.5-.2.1-.1.2-.3.2-.5v-.2zM160.3 28.6c-.2.1-.5.2-.8.2-.4 0-.8-.1-1-.4-.3-.3-.4-.6-.4-1 0-.5.1-.8.4-1.1.3-.3.6-.4 1.1-.4.3 0 .5 0 .7.1v.6c-.2-.1-.4-.2-.6-.2-.3 0-.5.1-.7.3-.2.2-.3.4-.3.7 0 .3.1.5.2.7.2.2.4.3.6.3.2 0 .4-.1.6-.2.2-.2.2.4.2.4zM162.4 28.7c-.1.1-.3.1-.5.1-.5 0-.8-.3-.8-.8v-1.6h-.5v-.5h.5v-.6l.6-.2v.8h.7v.5h-.7v1.4c0 .2 0 .3.1.4.1.1.2.1.3.1.1 0 .2 0 .3-.1v.5zM162.8 28.6V28c.2.2.5.3.8.3.4 0 .6-.1.6-.3v-.2c0-.1-.1-.1-.1-.1-.1 0-.1-.1-.2-.1s-.2-.1-.3-.1c-.1 0-.2-.1-.3-.1-.1-.1-.2-.1-.2-.2-.1-.1-.1-.1-.1-.2v-.3c0-.1 0-.3.1-.4.1-.1.1-.2.3-.3.1-.1.2-.1.4-.2.1 0 .3-.1.4-.1.3 0 .5 0 .7.1v.6c-.2-.1-.4-.2-.7-.2h-.2s-.1 0-.2.1l-.1.1V26.7l.1.1c.1 0 .1.1.2.1s.2.1.2.1c.1 0 .2.1.3.1.1.1.2.1.2.2l.2.2c0 .1.1.2.1.3 0 .1 0 .3-.1.4l-.3.3c-.1.1-.2.1-.4.2-.1 0-.3.1-.5.1-.4 0-.7-.1-.9-.2z"/>
  <path class="st1" d="M466.6 2.5H89.2c-1.8 0-3.2 1.4-3.2 3.2v236.9c0 1.8 1.4 3.2 3.2 3.2h377.4c1.8 0 3.2-1.4 3.2-3.2V5.7c0-1.8-1.4-3.2-3.2-3.2z"/>
  <path d="M83.1 17.9h383.8V3.5c0-1.8-1.4-3.2-3.2-3.2H86.3c-1.8 0-3.2 1.4-3.2 3.2v14.4z" style="fill:#464775"/>
  <path class="st3" d="M337.2 13.7H211.9c-.9 0-1.6-.7-1.6-1.6V6.3c0-.9.7-1.6 1.6-1.6h125.3c.9 0 1.6.7 1.6 1.6v5.9c0 .8-.8 1.5-1.6 1.5z"/>
  <path class="st4" d="M201.5 10.9v.2c0 .1-.1.1-.1.2s-.1.1-.2.1H197.7c-.1 0-.1-.1-.2-.1 0 0-.1-.1-.1-.2V7.8v-.2c0-.1.1-.1.1-.2s.1-.1.2-.1H199.3s.1 0 .1.1.1.1.1.1 0 .1-.1.1l-.1.1h-1.4s-.1 0-.1.1l-.1.1V11s0 .1.1.1l.1.1h3.1s.1 0 .1-.1l.1-.1V9.5s0-.1.1-.1.1-.1.1-.1.1 0 .1.1.1.1.1.1v1.4h-.1zm.7-3.7c0 .1 0 .2-.1.3 0 .1-.1.2-.2.2l-2.1 2.1h-.1c-.1 0-.1 0-.2.1-.1 0-.2 0-.2.1-.1 0-.2 0-.2.1H198.8s-.1 0-.1-.1l-.1-.1v-.1-.2c0-.1 0-.2.1-.2 0-.1 0-.2.1-.2 0-.1 0-.1.1-.2v-.1l2.1-2.1.2-.2c.1 0 .2-.1.3-.1.1 0 .2 0 .3.1.1 0 .2.1.2.2l.2.2v.2zm-.3 0v-.1s0-.1-.1-.1l-.1-.1h-.1-.1s-.1 0-.1.1l-2 2-.2.7.7-.2 2-2 .1-.1c-.1-.1-.1-.1-.1-.2z"/>
  <circle class="st5" cx="453.6" cy="9.1" r="6"/>
  <path class="st4" d="M109 17.9h102v225.7H109z"/>
  <path class="st1" d="M143.1 140h40.7v4.8h-40.7zM143.1 148.4h28.2v3.2h-28.2zM191.7 140.8H204v3.2h-12.3z"/>
  <path class="st6" d="M109 38.6h102v30.8H109z"/>
  <path class="st7" d="M143.1 47.6h40.7v4.8h-40.7zM143.1 56h22v3.2h-22zM196.5 48.4h7.6v3.2h-7.6z"/>
  <path class="st1" d="M143.1 170.7h30.8v4.8h-30.8zM143.1 179.1h30.8v3.2h-30.8zM196.4 171.5h7.6v3.2h-7.6zM143.1 202.7h40.7v4.8h-40.7zM143.1 211.1h28.2v3.2h-28.2zM193.6 203.5h10.5v3.2h-10.5zM143.1 108.6h22.3v4.8h-22.3zM143.1 117h42.4v3.2h-42.4zM196.4 109.4h7.6v3.2h-7.6z"/>
  <circle class="st1" cx="126.2" cy="146.3" r="8.8"/>
  <radialGradient id="SVGID_1_" cx="126.253" cy="1065.938" r="4.964" gradientTransform="translate(0 -916)" gradientUnits="userSpaceOnUse">
    <stop offset=".067" style="stop-color:#9b643d"/>
    <stop offset=".847" style="stop-color:#e0bb95"/>
  </radialGradient>
  <path d="M126.2 155.1c1 0 2-.2 3-.5-.3-.2-.4-.5-.4-.9v-3.8l-4.5.1v3.8c0 .4-.3.7-.7.8.7.3 1.6.5 2.6.5z" style="fill:url(#SVGID_1_)"/>
  <path class="st9" d="M131.6 138.9l-11.1.1-.8-.4.8-.4 11.1-.1c.2 0 .4.2.4.4-.1.2-.2.4-.4.4z"/>
  <linearGradient id="SVGID_2_" gradientUnits="userSpaceOnUse" x1="878.292" y1="1777.181" x2="882.586" y2="1782.852" gradientTransform="rotate(16.584 6140.115 -1630.008)">
    <stop offset=".269" style="stop-color:#594539"/>
    <stop offset=".811" style="stop-color:#463228"/>
  </linearGradient>
  <circle cx="126.1" cy="137.4" r="3.6" style="fill:url(#SVGID_2_)"/>
  <circle cx="126.1" cy="145.7" r="7" style="fill:#59453c"/>
  <ellipse class="st13" cx="126.2" cy="147.1" rx="5.3" ry="6.1"/>
  <path class="st13" d="M120.6 146.9c-.3.2-.5.5-.5.9s.1.7.3 1c.2.3.5.5.9.5s.8-.1 1-.3c.3-.2.4-.5.5-.9 0-.4-.1-.7-.3-1-.2-.3-.6-.4-1-.5-.3 0-.6.1-.9.3zM129.9 146.9c-.3.2-.5.5-.5.9s.1.7.3 1c.2.3.5.5.9.5s.8-.1 1-.3c.3-.2.4-.5.5-.9 0-.4-.1-.7-.3-1-.2-.3-.6-.4-1-.5-.3 0-.6.1-.9.3z"/>
  <path class="st14" d="M121.2 142c-1.3 1.8-1.5 3.6-1 5.5.8-1.2 1.6-.8 2.7-1.1 1.4-.4 3-.3 4.1-1.4 1.4-1.4 1.5-3.7 1.4-4.9-.1-.3-5.2-.8-7.2 1.9z"/>
  <path class="st14" d="M128 141.1c-.5 1.2-.3 5.5 4.1 5.7.1-1.8.3-3.6-.8-5-.9-1.2-2.5-2.5-3.3-.7z"/>
  <path class="st15" d="M128.5 150c-1.2 0-2.1-.9-2.1-2.1 0-1.2.9-2.1 2.1-2.1s2.1.9 2.1 2.1c0 1.2-1 2.1-2.1 2.1zm0-3.7c-.9 0-1.6.7-1.6 1.6 0 .9.7 1.6 1.6 1.6s1.6-.7 1.6-1.6c0-.8-.7-1.6-1.6-1.6zM123.9 150.1c-1.2 0-2.1-.9-2.1-2.1 0-1.2.9-2.1 2.1-2.1 1.2 0 2.1.9 2.1 2.1 0 1.2-.9 2.1-2.1 2.1zm0-3.7c-.9 0-1.6.7-1.6 1.6 0 .9.7 1.6 1.6 1.6.9 0 1.6-.7 1.6-1.6 0-.9-.7-1.6-1.6-1.6z"/>
  <path class="st15" d="M125.7 147.8c-.1 0-.3-.1-.3-.3 0-.1.1-.3.3-.3h.9c.1 0 .3.1.3.3s-.1.3-.3.3h-.9z"/>
  <ellipse transform="matrix(.0043 -1 1 .0043 -24.406 271.32)" class="st16" cx="124" cy="147.9" rx=".7" ry=".4"/>
  <ellipse transform="matrix(.0043 -1 1 .0043 -20.172 275.607)" class="st16" cx="128.3" cy="147.9" rx=".7" ry=".4"/>
  <path class="st17" d="M126.9 151.3c-.3.2-.7.3-1.2.2-.4-.1-.8-.4-1-.7 0-.1 0-.2.1-.3h.2c.3.1.5.3.8.3.3.1.6 0 .9.1.1 0 .2.1.2.2.1.1 0 .2 0 .2z"/>
  <path class="st1" d="M143.1 78.3h42.4v4.8h-42.4zM143.1 86.7h40.7v3.2h-40.7zM193.7 79.1h10.4v3.2h-10.4z"/>
  <path class="st0" d="M117.1 30.9h17.7v2h-17.7zM117.1 24.8h17.7v4h-17.7z"/>
  <path d="M109 243.6H86.3c-1.8 0-3.2-1.4-3.2-3.2V17.9H109v225.7z" style="fill:#33344a"/>
  <path class="st4" d="M93.4 70.4c0 .2 0 .3-.1.5s-.2.3-.3.4c-.1.1-.2.2-.4.3-.2.1-.3.1-.5.1s-.3 0-.5-.1-.3-.2-.4-.3c-.1-.1-.2-.2-.3-.4-.1-.2-.1-.3-.1-.5s0-.3.1-.5.2-.3.3-.4c.1-.1.2-.2.4-.3.2-.1.3-.1.5-.1s.3 0 .5.1.3.2.4.3c.1.1.2.2.3.4.1.2.1.4.1.5zm0 1.9v3.2h-.6c-.2 0-.4 0-.6-.1-.2 0-.4-.1-.6-.2-.2-.1-.3-.2-.5-.4-.1-.2-.2-.4-.2-.6v-1.9h2.5zm4.4-.6v3.7c0 .2-.1.5-.2.6s-.3.3-.5.4c-.2.1-.4.2-.6.2-.2 0-.4.1-.6.1-.2 0-.4 0-.6-.1-.2 0-.4-.1-.6-.2-.2-.1-.3-.2-.5-.4-.1-.2-.2-.4-.2-.6v-3.7h3.8zm-.6-1.9c0 .2 0 .3-.1.5s-.2.3-.3.4c-.1.1-.2.2-.4.3-.2.1-.3.1-.5.1s-.3 0-.5-.1-.3-.2-.4-.3c-.1-.1-.2-.2-.3-.4-.1-.2-.1-.3-.1-.5s0-.3.1-.5.2-.3.3-.4c.1-.1.2-.2.4-.3.2-.1.3-.1.5-.1s.3 0 .5.1.3.2.4.3c.1.1.2.2.3.4 0 .2.1.3.1.5zm3.7.6c0 .2 0 .3-.1.5s-.2.3-.3.4c-.1.1-.2.2-.4.3-.2.1-.3.1-.5.1s-.3 0-.5-.1-.3-.2-.4-.3c-.1-.1-.2-.2-.3-.4-.1-.2-.1-.3-.1-.5s0-.3.1-.5.2-.3.3-.4c.1-.1.2-.2.4-.3.2-.1.3-.1.5-.1s.3 0 .5.1.3.2.4.3c.1.1.2.2.3.4.1.2.1.4.1.5zm0 1.9v1.9c0 .2-.1.5-.2.6-.1.2-.3.3-.5.4-.2.1-.4.2-.6.2-.2 0-.4.1-.6.1h-.6v-3.2h2.5zM100.2 91.2v5.9c0 .2-.1.4-.2.6-.1.1-.3.2-.5.3-.3.1-.6.2-.9.2-.3.1-.6.1-.9.1-.3 0-.6.1-.9.1H95c-.3 0-.6 0-.9-.1-.3 0-.6-.1-.9-.1-.3-.1-.6-.1-.9-.2-.2-.1-.4-.2-.5-.3-.1-.1-.2-.3-.2-.6v-5.9c0-.1 0-.2.1-.4.1-.1.1-.2.2-.3.1-.1.2-.2.3-.2.1-.1.2-.1.4-.1h1.6V90v-.2-.2-.2c0-.1.1-.1.1-.1s.1-.1.2-.1.1 0 .2.1l.1.1v.8h2.5V90v-.2-.2-.2c0-.1.1-.1.1-.1s.1-.1.2-.1.1 0 .2.1l.1.1v.8h1.6c.1 0 .2 0 .4.1.1.1.2.1.3.2s.2.2.2.3c-.2.2-.2.3-.2.4zm-6.9 2.9h1.3v-1.3h-1.3v1.3zm0 1.8h1.3v-1.3h-1.3v1.3zm1.9-1.8h1.3v-1.3h-1.3v1.3zm0 1.8h1.3v-1.3h-1.3v1.3zm1.9-1.8h1.3v-1.3h-1.3v1.3zM99.7 111.8v8.1c0 .1 0 .2-.1.4-.1.1-.1.2-.2.3-.1.1-.2.2-.3.2-.1.1-.2.1-.4.1h-5.6c-.1 0-.2 0-.4-.1-.1-.1-.2-.1-.3-.2-.1-.1-.2-.2-.2-.3-.1-.1-.1-.2-.1-.4v-5.3h3.1v-3.8h3.4c.1 0 .2 0 .4.1.1.1.2.1.3.2.1.1.2.2.2.3.2.2.2.3.2.4zm-5-.6v2.9h-2.4c0-.1.1-.1.1-.2s.1-.1.1-.2c.2-.3.5-.6.7-.9.3-.3.5-.6.8-.8.1-.1.2-.3.3-.4.1-.2.3-.3.4-.4zM100.7 224.8c0 .1 0 .2-.1.3 0 .1-.1.2-.2.3l-1.5 1.5c.1 0 .2.1.2.1l.2.2c.1.1.1.2.1.2V230c0 .1 0 .2-.1.3 0 .1-.1.2-.2.3-.1.1-.2.1-.3.2-.1 0-.2.1-.3.1h-5.9c-.1 0-.2 0-.3-.1-.1 0-.2-.1-.3-.2-.1-.1-.1-.2-.2-.3 0-.1-.1-.2-.1-.3v-5.9c0-.1 0-.2.1-.3 0-.1.1-.2.2-.3.1-.1.2-.1.3-.2.1 0 .2-.1.3-.1H95.2c.1 0 .2.1.2.1l.2.2c.1.1.1.1.1.2l1.5-1.5c.1-.1.2-.1.3-.2.1 0 .2-.1.3-.1.1 0 .2 0 .3.1.1 0 .2.1.3.2l1.7 1.7c.1.1.2.2.2.3.4.4.4.5.4.6zm-5.2 2.1v-2.6c0-.1 0-.1-.1-.2s-.1-.1-.2-.1h-2.3c-.1 0-.1 0-.2.1s-.1.1-.1.2v2.6h2.9zm0 3.5v-2.9h-2.9v2.6c0 .1 0 .1.1.2s.1.1.2.1h2.6zm4.7-5.6v-.1s0-.1-.1-.1l-1.7-1.7c-.1-.1-.1-.1-.2-.1h-.1s-.1 0-.1.1l-1.7 1.7s0 .1-.1.1v.2s0 .1.1.1l1.7 1.7.1.1h.2s.1 0 .1-.1l1.7-1.7s0-.1.1-.1c-.1 0 0 0 0-.1zm-3.1 2.1l-1.1-1.1v1.1h1.1zm1.9 3.2v-2.3c0-.1 0-.1-.1-.2s-.1-.1-.2-.1h-2.6v2.9h2.6c.1 0 .1 0 .2-.1s.1-.1.1-.2zM100.4 31.2c0 .1 0 .2-.1.2s-.1.1-.1.2c-.1.1-.1.1-.2.1s-.2.1-.2.1h-7.5c-.1 0-.2 0-.2-.1-.1 0-.1-.1-.2-.1-.1-.1-.1-.1-.1-.2s-.1-.2-.1-.2c0-.2 0-.3.1-.3l.2-.2c.1 0 .2-.1.3-.1.1 0 .2-.1.3-.1.1 0 .2-.1.2-.2.1-.1.1-.2.1-.3v-2.5c0-.3 0-.6.1-.8.1-.3.2-.5.3-.7.1-.2.3-.4.5-.6.2-.2.4-.4.6-.5s.5-.2.7-.3c.3-.1.5-.1.8-.1.3 0 .6 0 .8.1.3.1.5.2.8.3.2.1.4.3.6.5.2.2.4.4.5.7.1.2.2.5.3.8.1.3.1.6.1.8v2.4c0 .2 0 .3.1.3s.1.1.2.2c.1 0 .2.1.3.1.1 0 .2.1.3.1.1 0 .2.1.2.2.2-.1.3 0 .3.2zm-2.9 1.6c0 .2 0 .4-.1.6-.1.2-.2.4-.3.5-.1.1-.3.3-.5.3-.2.1-.4.1-.6.1s-.4 0-.6-.1c-.2-.1-.4-.2-.5-.3-.1-.1-.3-.3-.3-.5s-.1-.4-.1-.6c0-.1 0-.2.1-.2.1-.1.1-.1.2-.1h2.5c.1 0 .2 0 .2.1v.2z"/>
  <path class="st0" d="M83.1 39.5H109v21.2H83.1z"/>
  <path class="st4" d="M100.2 46.6V55c0 .1 0 .2-.1.3 0 .1-.1.2-.1.2-.1.1-.1.1-.2.1s-.2.1-.3.1c-.1 0-.2 0-.3-.1s-.2-.1-.2-.2l-1.5-1.7h-2.9c-.3 0-.7 0-1-.1-.3 0-.7-.1-1-.1-.3-.1-.6-.1-.9-.2-.2-.1-.4-.2-.6-.4-.2-.2-.2-.4-.2-.6v-5.7c0-.1 0-.3.1-.4.1-.1.1-.2.2-.3s.2-.2.3-.2c.1-.1.2-.1.4-.1h7.4c.1 0 .3 0 .4.1.1.1.2.1.3.2.1.1.2.2.2.3v.4zm-6.9 2.1h4.4v-.6h-4.4v.6zm0 1.9h2.9V50h-2.9v.6z"/>
  <path class="st3" d="M463.7 243.6H211V17.9h255.9v222.5c0 1.8-1.4 3.2-3.2 3.2z"/>
  <path class="st6" d="M228.6 51.5h45v3.2h-45zM284 51.5h13.7v3.2H284zM371.6 51.5h43.1v3.2h-43.1zM347.2 51.5h14.1v3.2h-14.1zM308 51.5h28.8v3.2H308zM228.6 57.9h45v2.4h-45z"/>
  <path class="st19" d="M444.6 207.1H288.4c-.9 0-1.6-.7-1.6-1.6V168c0-.9.7-1.6 1.6-1.6h156.2c.9 0 1.6.7 1.6 1.6v37.5c0 .9-.7 1.6-1.6 1.6z"/>
  <path class="st20" d="M294.8 174.6h117.5v3.2H294.8z"/>
  <path class="st21" d="M294.8 182.3h140.1v3.2H294.8zM294.8 189.9h126.3v3.2H294.8zM294.8 197.7h30.1v3.2h-30.1z"/>
  <path class="st19" d="M444.6 129.4H327.5c-.9 0-1.6-.7-1.6-1.6v-22.3c0-.9.7-1.6 1.6-1.6h117.1c.9 0 1.6.7 1.6 1.6v22.3c0 .8-.7 1.6-1.6 1.6z"/>
  <path class="st21" d="M336.3 111h99.3v3.2h-99.3zM336.4 119.4h71.2v3.2h-71.2z"/>
  <path class="st4" d="M408.3 158.9H254c-.9 0-1.6-.7-1.6-1.6v-19.7c0-.9.7-1.6 1.6-1.6h154.3c.9 0 1.6.7 1.6 1.6v19.7c0 .9-.7 1.6-1.6 1.6z"/>
  <path class="st22" d="M262.5 149.8h37.1v3.2h-37.1zM262.5 143.4h134.2v3.2H262.5z"/>
  <path class="st4" d="M275.8 96.4H254c-.9 0-1.6-.7-1.6-1.6V73.6c0-.9.7-1.6 1.6-1.6h21.7c.9 0 1.6.7 1.6 1.6v21.2c.1.8-.6 1.6-1.5 1.6z"/>
  <path class="st1" d="M251 30.7h85.1v7.2H251z"/>
  <circle class="st19" cx="413" cy="34.3" r="6.4"/>
  <path class="st4" d="M413.9 33.4V35.7c0 .1-.1.1-.1.1l-.1.1h-2.5c-.1 0-.2 0-.2-.1-.1 0-.1-.1-.2-.2s-.1-.2-.1-.3c0-.1 0-.2-.1-.3v-.3V34.1v-.2-.3c0-.1 0-.2.1-.3s.1-.2.1-.3.1-.1.2-.2c.1 0 .1-.1.2-.1h2.5c.1 0 .1.1.1.1l.1.1v.5zm1.5 0v2.2h-.1-.1l-.8-.7c-.1-.1-.1-.1-.1-.2v-.2-.2c0-.1.1-.1.1-.2l.8-.7h.2c0-.1 0 0 0 0z"/>
  <circle class="st19" cx="428.1" cy="34.3" r="6.4"/>
  <path class="st4" d="M429.9 35.8V36.1c0 .1 0 .1-.1.2l-.1.1-.1.1h-.2-.1-.1c-.3-.1-.5-.2-.7-.3-.2-.1-.4-.3-.6-.4-.2-.2-.4-.3-.5-.5-.2-.2-.3-.4-.4-.6-.1-.2-.2-.5-.2-.7-.1-.2-.1-.5-.1-.8v-.3c0-.1 0-.1.1-.2 0-.1.1-.1.1-.1h.6s.1 0 .1.1l.1.1c0 .1.1.1.1.2s.1.1.1.2 0 .1.1.2v.4c0 .1-.1.1-.1.2s-.1.1-.1.2-.1.1-.2.2l.7 1s.1 0 .1-.1c0 0 .1 0 .1-.1h.4c.1 0 .1 0 .2.1.1 0 .1.1.2.1s.1.1.2.1l.1.1.1.1s0 .1.1.1c.1-.1.1 0 .1 0z"/>
  <circle class="st22" cx="443.3" cy="34.3" r="6.4"/>
  <path d="M442.1 33.6v.2c0 .1-.1.1-.1.2-.1.1-.1.1-.2.1h-.4c-.1 0-.1-.1-.2-.1-.1-.1-.1-.1-.1-.2v-.2-.2c0-.1.1-.1.1-.2s.1-.1.2-.1h.4s.1.1.2.1c.1.1.1.1.1.2v.2zm0 .9V36h-.6c-.1 0-.2-.1-.3-.1-.1 0-.2-.1-.2-.2-.1-.1-.1-.2-.1-.3v-.9h1.2zm2.1-.3v1.5c0 .1 0 .2-.1.3l-.2.2c-.1 0-.2.1-.3.1h-.6c-.1 0-.2-.1-.3-.1-.1 0-.2-.1-.2-.2-.1-.1-.1-.2-.1-.3v-1.5h1.8zm-.3-.9v.2c0 .1-.1.1-.1.2-.1.1-.1.1-.2.1h-.4c-.1 0-.1-.1-.2-.1-.1-.1-.1-.1-.1-.2v-.2-.2c0-.1.1-.1.1-.2.1-.1.1-.1.2-.1h.4c.1 0 .1.1.2.1.1.1.1.1.1.2v.2zm1.8-.5v.1h-.6v.5h-.1-.1V33h-.4-.1v-.1-.1h.5v-.4-.1h.2v.5h.6c0-.1 0 0 0 0z" style="fill:#16233a"/>
  <path class="st4" d="M444.6 231.9H254c-.9 0-1.6-.7-1.6-1.6v-9.6c0-.9.7-1.6 1.6-1.6h190.7c.9 0 1.6.7 1.6 1.6v9.6c-.1.9-.8 1.6-1.7 1.6z"/>
  <linearGradient id="SVGID_3_" gradientUnits="userSpaceOnUse" x1="518.766" y1="-285.105" x2="462.784" y2="-309.836" gradientTransform="matrix(1 0 0 -1 0 -80.228)">
    <stop offset="0" style="stop-color:#c8c6c4"/>
    <stop offset="1" style="stop-color:#e1dfdd"/>
  </linearGradient>
  <path d="M507.4 183.1L453 235.9l10.7 13.6s18.5 2.1 26.9-6.3l30.8-31.9s-6.1-35.9-14-28.2z" style="fill:url(#SVGID_3_)"/>
  <path d="M482.1 164.3c7.1 14.1 11.2 16.7 21.5 19.4 10.4 2.8 20.1-11 20.1-11l4.2 3.6s-9.4 36.2-33.7 32.8c-24.6-3.5-42.1-20.1-40.3-38.6 1.6-15.9 21-20.5 28.2-6.2z" style="fill:#7c7ebb"/>
  <linearGradient id="SVGID_4_" gradientUnits="userSpaceOnUse" x1="525.894" y1="-317.199" x2="552.1" y2="-276.81" gradientTransform="matrix(1 0 0 -1 0 -80.228)">
    <stop offset="0" style="stop-color:#c8c6c4"/>
    <stop offset="1" style="stop-color:#e1dfdd"/>
  </linearGradient>
  <path d="M569.5 247.3l-6.5-3.4c-1.1-.6-2.1-1.6-2.8-3.3l-25.2-53c-4.7-9.9-17.8-12.3-25.7-4.6l14 28.3 29.1 34.6c.1 2 1.7 3.5 3.7 3.5l12.9.1c1 0 1.5-1.5.5-2.2z" style="fill:url(#SVGID_4_)"/>
  <radialGradient id="SVGID_5_" cx="441.086" cy="-287.138" r="57.167" gradientTransform="matrix(1.0339 0 -.0858 -1 -3.633 -80.228)" gradientUnits="userSpaceOnUse">
    <stop offset="0" style="stop-color:#6264a7"/>
    <stop offset=".746" style="stop-color:#8b8cc7"/>
  </radialGradient>
  <path d="M460.1 231.8h-36.3l-4.1-48c-2.2-19.9 9.8-38.6 25.9-38.6h7.1c16.1 0 30.3 12.6 31.6 28.2l2.6 30.1c1.4 15.7-10.6 28.3-26.8 28.3z" style="fill:url(#SVGID_5_)"/>
  <path class="st13" d="M463.8 147.3c-3.5-1.3-7.2-2.1-11.1-2.1h-7.1c-1.6 0-3.2.3-4.7.6 1 4.5 6.8 7.9 13 7.9 5.3 0 9.4-2.7 9.9-6.4zM528 176.3c-.3-.1-8.7-3.1-8.6-3.6l5.2-12.5c.2-.4.6-.7 1-.6h6c1.6.4 2.7 2.5 1.3 6.2l-4.9 10.5z"/>
  <path class="st28" d="M525.6 176.5h-26c-1.2 0-2.1-.9-2-2l3.6-31.5c.1-1.1 1.2-2 2.4-2h26c1.2 0 2.1.9 2 2l-3.6 31.5c-.1 1.2-1.2 2-2.4 2z"/>
  <path class="st13" d="M497.5 176.3s9.2-3.7 10-7.6c1-1.7 1.1-1.9 1.3-2.7.4-1.7-1-1.6-1-1.6s1.3-1.3.6-2.3c-.7-1-9.9 4.8-9.9 4.8l.5-4.2s-5.7 5.9-5.7 10c0 1.3 4.2 3.6 4.2 3.6z"/>
  <path class="st20" d="M449.5 163.9c5.3 15.1 7.9 18.3 18.3 20.8s25.5-11.9 25.5-11.9l4.3 3.5s-11.2 33.7-35.7 33.4c-22.4-.3-41.9-21.2-40.5-39.8 1-15.9 22.8-21.2 28.1-6z"/>
  <radialGradient id="SVGID_6_" cx="500.846" cy="-281.296" r="11.35" gradientTransform="matrix(.9218 .0427 .0362 -.7812 7.379 -100.584)" gradientUnits="userSpaceOnUse">
    <stop offset="0" style="stop-color:#9b643d"/>
    <stop offset=".273" style="stop-color:#b6865f"/>
    <stop offset=".566" style="stop-color:#cda37c"/>
    <stop offset=".819" style="stop-color:#dbb58f"/>
    <stop offset="1" style="stop-color:#e0bb95"/>
  </radialGradient>
  <path d="M456.9 151.6l-7.9-.4c-2.9-.1-5.1-2.6-5-5.5l.7-14.8 18 .8-.7 15.2c-.2 2.7-2.5 4.8-5.1 4.7z" style="fill:url(#SVGID_6_)"/>
  <radialGradient id="SVGID_7_" cx="433.497" cy="-258.241" r="23.586" gradientTransform="scale(1 -1) rotate(4.646 -834.826 -102.477)" gradientUnits="userSpaceOnUse">
    <stop offset="0" style="stop-color:#915a37"/>
    <stop offset="1" style="stop-color:#dcb38b"/>
  </radialGradient>
  <path d="M445 131.5s.3 13.6-10.2 26.9c27.9-1.4 31.4-12.9 31.4-12.9l-8.4-6.9-12.8-7.1z" style="display:none;fill:url(#SVGID_7_)"/>
  <radialGradient id="SVGID_8_" cx="5887.046" cy="1774.374" r="19.351" gradientTransform="matrix(-.9916 .1293 .1581 1.2128 6014.798 -2787.38)" gradientUnits="userSpaceOnUse">
    <stop offset="0" style="stop-color:#915a37"/>
    <stop offset="1" style="stop-color:#dcb38b"/>
  </radialGradient>
  <path d="M446 123.5l14.6-1.9 2.5 21.5c.2 1.3 2.5 2.2 3.2 2.5-3.3 5.5-16 9.8-25.8 7.3.8-.2 2.8-3.7 2.6-5.4l2.9-24z" style="display:none;fill:url(#SVGID_8_)"/>
  <path class="st1" d="M458 129.1l-16.4-1 .5-9.4c.2-3 2.8-5.3 5.8-5.1l10.9.6c4.1.2 7.2 3.8 7 7.9-.2 4.1-3.7 7.2-7.8 7z"/>
  <circle class="st13" cx="445.2" cy="128.7" r="4.3"/>
  <path class="st13" d="M458.4 145.8c-7.9-.5-14-7.3-13.5-15.2l.5-8.3c.2-3.2 3-5.7 6.2-5.5l19.3 1.1-1 17.6c-.3 6.1-5.5 10.7-11.5 10.3z"/>
  <path class="st1" d="M465.8 119.4c-3.5-1.1-6.4-1.7-10-2-5.6-.6-10.3.1-10.3.1l.2-1.7c.4-3.8 3-7.2 7.6-6.2 7.1 1.5 5.7-.7 8.8-.7 2.9 0 3.4 2.9 4.6 3.1 3 .3 2.7-3.6 7-2.3 3.6 1 5 13.8-7.9 9.7z"/>
  <ellipse transform="matrix(.058 -.9983 .9983 .058 302.228 575.028)" class="st14" cx="455.8" cy="127.4" rx="1.8" ry="1.1"/>
  <radialGradient id="SVGID_9_" cx="6679.827" cy="-1853.911" r="8.588" gradientTransform="matrix(-.971 -.0495 .0366 -.7182 7012.444 -868.76)" gradientUnits="userSpaceOnUse">
    <stop offset="0" style="stop-color:#bf8f68"/>
    <stop offset="1" style="stop-color:#bf8f68;stop-opacity:0"/>
  </radialGradient>
  <path d="M469.5 144.8l-10.2-.6.6-8.9c0-.5.3-.9.7-1.1l2.1-1.2c.5-.3.6-.8.4-1.3l-1.6-2.8c-.4-.7-.6-1.4-.5-2.2l.6-9.6 10.2.6-2.3 27.1z" style="fill:url(#SVGID_9_)"/>
  <ellipse transform="matrix(.058 -.9983 .9983 .058 310.554 584.508)" class="st14" cx="465" cy="127.7" rx="1.8" ry="1.1"/>
  <path class="st1" d="M445 115.7s6.8-1.1 6.7 4c0 3-2.3 4.4-4.2 4.7-1.7.3-3 .2-3 .2l.5-8.9z"/>
  <path class="st17" d="M456 135.7c1 .9 1.6 1.2 2.3 1.5.7.2 1.5.4 2.7.4.2 0 .4.2.4.4v.2c-.7 1.3-2.4 1.8-3.9 1.3-.7-.3-1.4-.8-1.8-1.4-.4-.6-.5-1.4-.4-2.1 0-.2.2-.3.4-.3.1-.1.2-.1.3 0z"/>
  <path class="st1" d="M464.9 249.7h-18.3c-11.7 0-21.9-9.2-22.9-20.5l-1.2-13.4H462l2.9 33.9z"/>
  <path class="st1" d="M553 247.5l-6.5-3.4c-1.1-.6-2.1-1.6-2.8-3.3l-25.2-53c-4.7-9.9-17.8-12.3-25.7-4.6L433 230.8l12.6 12.7c8.4 8.4 21.9 8.4 30.3 0l30.8-31.9 29.1 34.6c.1 2 1.7 3.5 3.7 3.5l12.9.1c1.1-.1 1.6-1.6.6-2.3z"/>
  <path class="st13" d="M531.1 162l-3.1-.5c-.7-.1-1.1-.8-1-1.4.1-.7.8-1.1 1.4-1l3.1.5c.7.1 1.1.8 1 1.4-.1.7-.7 1.2-1.4 1zM530.2 165.4l-3.1-.5c-.7-.1-1.1-.8-1-1.4.1-.7.8-1.1 1.4-1l3.1.5c.7.1 1.1.8 1 1.4-.1.7-.7 1.1-1.4 1z"/>
  <path class="st13" d="M530.2 167.8l-3.1-.5c-.7-.1-1.1-.8-1-1.4.1-.7.8-1.1 1.4-1l3.1.5c.7.1 1.1.8 1 1.4-.1.7-.7 1.1-1.4 1z"/>
  <path class="st13" d="M529.7 170.1l-1.6-.3c-.7-.1-1.1-.8-1-1.4.1-.7.8-1.1 1.4-1l1.6.3c.7.1 1.1.8 1 1.4-.1.7-.8 1.1-1.4 1zM443.2 144.4c-.4.7-2.3 1.3-2.3 1.3l4.6 1-1.4-5.3s-.1 1.7-.9 3z"/>
  <path class="st0" d="M143.1 24.8h21.7v4h-21.7z"/>
  <circle cx="264.9" cy="84.2" r="9.8" style="fill:#f7b548"/>
  <circle class="st35" cx="261.3" cy="81.6" r="1.5"/>
  <circle class="st35" cx="268.7" cy="81.6" r="1.5"/>
  <path class="st36" d="M258.3 86c.8 2.9 3.5 5.1 6.6 5.1 3.1 0 5.9-2.2 6.6-5.1h-13.2z"/>
  <path d="M271.1 87.2c.2-.4.3-.8.4-1.2h-13.3c.1.4.3.8.4 1.2h12.5z" style="fill:#f3f3f3"/>
  <path class="st16" d="M260 85.2h-.6c-2.3 0-4.2-1.9-4.2-4.2v-1.4h9V81c0 2.3-1.9 4.2-4.2 4.2zM270.5 85.2h-.6c-2.3 0-4.2-1.9-4.2-4.2v-1.4h9V81c0 2.3-1.9 4.2-4.2 4.2z"/>
  <path class="st38" d="M273.8 83.5l-3.9-4h-2.3l4.9 5c.5-.2.9-.5 1.3-1z"/>
  <circle class="st5" cx="453.6" cy="9" r="6"/>
  <path class="st39" d="M448.9 7.4c0 1.2-.2 2.9-.5 4.7 1 1.8 2.9 2.9 5.1 2.9 2.3 0 4.4-1.4 5.3-3.3-.3-1.9-.5-3.5-.6-4.7 0-.7-9.1-.2-9.3.4z"/>
  <ellipse transform="matrix(.0082 -1 1 .0082 442.422 461.027)" class="st39" cx="453.6" cy="7.5" rx="5.2" ry="4.7"/>
  <path class="st40" d="M449.8 13.7c1 .8 2.3 1.4 3.8 1.4 1.4 0 2.7-.5 3.7-1.3-.9-.4-1.8-.8-2.8-1 .1.2-3.5.7-3.5.7-.4-.1-.8 0-1.2.2z"/>
  <path class="st17" d="M455.8 13.1c-1.1-.3-1.2-1.1-1.2-1.3V9.6h-2.1v2.9c0 .3-.2.6-.6.7l-1.2.3s2.4.8 5.6-.1c-.2-.1-.4-.2-.5-.3z"/>
  <circle transform="rotate(-88.671 450.45 9.69) scale(.99997)" class="st41" cx="450.4" cy="9.7" r=".6"/>
  <ellipse transform="matrix(.0082 -1 1 .0082 441.995 460.67)" class="st17" cx="453.2" cy="7.5" rx="3.8" ry="3.1"/>
  <ellipse transform="rotate(-88.671 454.262 7.766) scale(.99997)" class="st39" cx="454.3" cy="7.8" rx=".5" ry=".3"/>
  <radialGradient id="SVGID_10_" cx="1425.359" cy="927.577" r="1.514" gradientTransform="matrix(-.9978 .067 .0707 1.0519 1808.98 -1062.777)" gradientUnits="userSpaceOnUse">
    <stop offset="0" style="stop-color:#9b643d"/>
    <stop offset=".882" style="stop-color:#ba8a63;stop-opacity:.1178"/>
    <stop offset="1" style="stop-color:#bf8f68;stop-opacity:0"/>
  </radialGradient>
  <path d="M453.1 5.6l-.1 1.3c-.1.6-.4 1.1-.7 1.3-.1.1-.2.5 0 .7.1.1.5.4.5.6v1.2h-2.4l.2-5.1h2.5z" style="fill:url(#SVGID_10_)"/>
  <path class="st15" d="M452.6 9.7c.2 0 1-.1 1.2-.2h.1l.1.1c0 .4-.4.6-.6.7-.3 0-.7 0-.8-.3-.1-.2-.1-.2 0-.3z"/>
  <path class="st39" d="M450.1 4.6s.7.3 1.5-.1c.7-.4 1.3.3 1.6.8.7 1.1 1.9 2 3.1 1.9.9-.1 1.1-2.9-1.4-3.8-2.5-1.1-4.8 1.2-4.8 1.2z"/>
  <path class="st17" d="M455.2 8.9h1.2c.5 0 .9-.4.9-.9v-.1c0-.5-.4-.9-.9-.9h-1.2v1.9z"/>
  <circle transform="rotate(-88.671 456.443 9.557) scale(.99997)" class="st41" cx="456.4" cy="9.6" r=".6"/>
  <ellipse transform="matrix(1 -.0067 .0067 1 -.04 3.027)" class="st39" cx="451.7" cy="7.6" rx=".3" ry=".5"/>
  <circle class="st43" cx="126.2" cy="209" r="8.8"/>
  <radialGradient id="SVGID_11_" cx="126.654" cy="1128.67" r="3.4" gradientTransform="translate(0 -916)" gradientUnits="userSpaceOnUse">
    <stop offset="0" style="stop-color:#9a6541"/>
    <stop offset="1" style="stop-color:#be906b"/>
  </radialGradient>
  <path d="M123.9 217.5c.7.2 1.5.3 2.3.3.9 0 1.8-.2 2.6-.4v-3.7h-4.9v3.8z" style="fill:url(#SVGID_11_)"/>
  <path class="st14" d="M128.6 202.7c-1.6 1.1-2.5 2.3-2.5 2.3s2.6.1 4.3 3.1c.3.5.3 1.4.1 2.8-.1 1.4-.1 2.4.1 2.7.2.6 1 2 3.3 2 2.7.1 3.7-1.8 3.7-1.8-1.7.4-1.7-1.8-1.7-1.8.3-5.2.3-6.7.1-7.4-.5-2.4-2.3-2.9-3-3-1.4-.2-2.8.1-4.4 1.1z"/>
  <path class="st14" d="M131.2 203.2c-1.3-1.4-3-2.2-4.9-2.2-1.9 0-3.6.7-5 2.1-1.4 1.4-2.1 3.1-2.1 5.1 0 2 .6 3.8 2 5.2 1.3 1.4 3 2.2 4.9 2.2 1.9 0 3.6-.7 5-2.1 1.4-1.4 2.1-3.1 2.1-5.1 0-2.1-.7-3.8-2-5.2z"/>
  <ellipse class="st45" cx="126.4" cy="209.5" rx="5" ry="6.8"/>
  <radialGradient id="SVGID_12_" cx="30.741" cy="1903.332" r="2.103" gradientTransform="matrix(1 0 0 .9918 95.35 -1676.425)" gradientUnits="userSpaceOnUse">
    <stop offset="0" style="stop-color:#956d4e;stop-opacity:.8784"/>
    <stop offset=".937" style="stop-color:#a7754b;stop-opacity:0"/>
  </radialGradient>
  <path d="M126.3 207.8H123v6h3.3v-6z" style="fill:url(#SVGID_12_)"/>
  <path class="st45" d="M125.9 212.1c.3.1.4.2.4.2s.8-1.7 0-3l-.1.5c-.1.4-.9.9-.9 1.4-.1.2 0 .7.6.9z"/>
  <path d="M127.8 213.3c-.1.5-.6.8-1.1 1-.5 0-1-.1-1.4-.4-.1-.1-.1-.3 0-.4.1-.1.2-.1.2-.1.4 0 .7.1.9 0 .3 0 .5-.2.8-.4h.1c.1-.1.3-.1.4.1.2.1.2.1.1.2z" style="fill:#9a6541"/>
  <ellipse class="st39" cx="124" cy="209.9" rx=".5" ry=".8"/>
  <ellipse class="st39" cx="128.5" cy="209.9" rx=".5" ry=".8"/>
  <circle class="st45" cx="121.5" cy="210.6" r="1.4"/>
  <circle class="st45" cx="131.2" cy="210.6" r="1.4"/>
  <path class="st14" d="M131.6 204.2c-.1 0-.3 1.6-.9 2-1.3-2-3-1.4-5.6 1-2.1 2.1-6 2.1-7.5-2 .5.4 1.1.7 2.4-1.2 1.7-2.3 3.8-3.3 6.4-3.1 2.5.3 3.9 1.4 5.2 3.3z"/>
  <circle class="st1" cx="126.1" cy="84.2" r="8.8"/>
  <radialGradient id="SVGID_13_" cx="126.302" cy="1005.233" r="4.564" gradientTransform="translate(0 -916)" gradientUnits="userSpaceOnUse">
    <stop offset=".173" style="stop-color:#724937"/>
    <stop offset=".703" style="stop-color:#9b643d"/>
  </radialGradient>
  <path d="M129 85.4h-5.3v7c0 .1-.1.2-.1.2.8.2 1.7.4 2.6.4 1 0 2-.2 2.9-.5 0-.1-.1-.1-.1-.2v-6.9z" style="fill:url(#SVGID_13_)"/>
  <circle class="st14" cx="121.3" cy="81" r="1.5"/>
  <circle class="st14" cx="124.7" cy="74.7" r="1.8"/>
  <circle class="st14" cx="122.4" cy="75.9" r="1.8"/>
  <circle class="st14" cx="121.2" cy="78.4" r="1.8"/>
  <circle class="st14" cx="131.1" cy="81" r="1.5"/>
  <circle class="st14" cx="127.6" cy="74.8" r="1.8"/>
  <circle class="st14" cx="130.1" cy="76" r="1.8"/>
  <circle class="st14" cx="131.1" cy="78.7" r="1.8"/>
  <path class="st14" d="M129.3 85.2h-6.2c-1.3 0-2.3-1-2.3-2.3V80c0-3 2.4-5.4 5.4-5.4 3 0 5.4 2.4 5.4 5.4v2.8c0 1.4-1 2.4-2.3 2.4z"/>
  <path class="st15" d="M119.9 84.3c0 1 .8 1.7 1.7 1.7h1c.9-.1.8-.8.8-1.7 0-.9.1-1.6-.7-1.7h-1c-1 0-1.8.7-1.8 1.7z"/>
  <path class="st15" d="M126.2 90.5c-2.5 0-4.6-2.1-4.6-4.6v-4.8c0-2.5 2.1-4.6 4.6-4.6 2.5 0 4.6 2.1 4.6 4.6v4.8c0 2.6-2.1 4.6-4.6 4.6z"/>
  <ellipse transform="matrix(.0055 -1 1 .0055 44.282 210.838)" class="st39" cx="128.1" cy="83.2" rx=".7" ry=".4"/>
  <radialGradient id="SVGID_14_" cx="234.726" cy="1159.876" r="3.879" gradientTransform="matrix(.9721 .0123 -.0111 .8762 -88.96 -934.285)" gradientUnits="userSpaceOnUse">
    <stop offset=".173" style="stop-color:#724937"/>
    <stop offset=".703" style="stop-color:#9b643d"/>
  </radialGradient>
  <path d="M122.7 88.8l3.3-.1.1-2.5c0-.2-.1-.4-.3-.5l-.8-.5c-.2-.1-.2-.4-.1-.5l.7-1.1c.2-.3.3-.6.3-.9v-3.9l-3.5.1.3 9.9z" style="fill:url(#SVGID_14_)"/>
  <ellipse transform="matrix(.0055 -1 1 .0055 40.333 206.824)" class="st39" cx="124.1" cy="83.1" rx=".7" ry=".4"/>
  <path class="st15" d="M132.6 84.3c0 1-.8 1.7-1.7 1.7h-1c-.9-.1-.8-.8-.8-1.7 0-.9-.1-1.6.7-1.7h1c1 0 1.7.7 1.8 1.7z"/>
  <path d="M127.8 87.2c0 .3-.1.6-.3.8-.2.2-.5.4-.7.5-.3.1-.6.1-.9 0-.3-.1-.5-.3-.7-.5-.1-.1 0-.2.1-.3h.7c.2 0 .3 0 .5-.1.3-.1.6-.2 1-.5.1-.1.2 0 .3.1 0-.1 0-.1 0 0z" style="fill:#855035"/>
  <path class="st14" d="M129.3 75.6h-6.2l-1.9 2.9.4 4 .5-2.9c.2-.9 1-1.6 2-1.6h4.3c1 0 1.8.7 2 1.6l.5 2.9.4-4-2-2.9z"/>
  <circle class="st14" cx="128.4" cy="77.3" r="1.8"/>
  <circle class="st20" cx="126.2" cy="114.8" r="8.8"/>
  <radialGradient id="SVGID_15_" cx="126.175" cy="1035.064" r="3.031" gradientTransform="translate(0 -916)" gradientUnits="userSpaceOnUse">
    <stop offset="0" style="stop-color:#9b643d"/>
    <stop offset=".451" style="stop-color:#b98963"/>
    <stop offset=".99" style="stop-color:#e0bb95"/>
  </radialGradient>
  <path d="M124.4 118.1v4c0 .6-.1.9-.3 1.2.7.2 1.4.3 2.1.3.8 0 1.6-.2 2.4-.4-.2-.2-.3-.5-.2-1v-4.1h-4z" style="fill:url(#SVGID_15_)"/>
  <path class="st52" d="M132.5 112.2c-.1 3.8-2.9 6.8-6.4 6.7-3.5-.1-6.3-3.2-6.2-6.9s1.5-6.7 6.4-6.7c4.8 0 6.3 3.1 6.2 6.9z"/>
  <path class="st13" d="M123.6 117h-2.1c-.7 0-1.3-.6-1.3-1.3v-.4c0-.7.6-1.3 1.3-1.3h2.1v3zM128.8 117h2.1c.7 0 1.3-.6 1.3-1.3v-.4c0-.7-.6-1.3-1.3-1.3h-2.1v3z"/>
  <path class="st9" d="M130.6 120c-.9 0-1.7-.7-1.7-1.7 0-.9.7-1.7 1.7-1.7s1.7.7 1.7 1.7c-.1 1-.8 1.7-1.7 1.7zm0-2.6c-.6 0-1 .4-1 1s.4 1 1 1c.5 0 1-.4 1-1s-.5-1-1-1zM121.7 120c-.9 0-1.7-.7-1.7-1.7 0-.9.7-1.7 1.7-1.7.9 0 1.7.7 1.7 1.7s-.8 1.7-1.7 1.7zm0-2.6c-.5 0-1 .4-1 1s.4 1 1 1 1-.4 1-1-.4-1-1-1z"/>
  <path class="st52" d="M130.5 107.6c-.6-3.7-5-4.4-7.7-3.3-2.4 1-3.6 2.9-4.8 1.1 0 0-1.9 1.6-1.3 3.8.5 2.2 3 3.8 4.7 3 1.2-.5 2.3-2.5 4.5-3.7 1.8-1 4.6-.9 4.6-.9z"/>
  <path class="st13" d="M131.1 114c0 3.7-2.2 6.7-4.9 6.7s-4.9-3-4.9-6.7 2.2-6.4 4.9-6.4 4.9 2.7 4.9 6.4z"/>
  <ellipse transform="rotate(-.85 128.226 114.345) scale(1.00001)" class="st39" cx="128.2" cy="114.4" rx=".4" ry=".7"/>
  <radialGradient id="SVGID_16_" cx="127.888" cy="1031.807" r="3.202" gradientTransform="translate(0 -916)" gradientUnits="userSpaceOnUse">
    <stop offset="0" style="stop-color:#9b643d"/>
    <stop offset=".882" style="stop-color:#ba8a63;stop-opacity:.1178"/>
    <stop offset="1" style="stop-color:#bf8f68;stop-opacity:0"/>
  </radialGradient>
  <path d="M126.5 110.9l-.1 2c0 1-.6 1.9-.9 2.4-.2.2-.1.6.1.8.4.3.8.9.9 1.4l-.1 1.2-3 .3-.2-8 3.3-.1z" style="fill:url(#SVGID_16_)"/>
  <path class="st17" d="M125.5 118.1c.8 0 1.2-.1 1.9-.4.1 0 .2 0 .2.1v.1c-.1.5-.5.8-1 1-.5.1-1-.1-1.3-.5 0-.2 0-.3.2-.3-.1 0 0 0 0 0z"/>
  <ellipse transform="rotate(-.85 124.071 114.348) scale(1.00001)" class="st39" cx="124.1" cy="114.4" rx=".4" ry=".7"/>
  <path class="st52" d="M131.5 108.8s-2.6-1.5-5.4-1.5c-2.8 0-5.4 1.5-5.4 1.5l-.6 5.3 1.1.1.9-3.9c.1-.3.4-.5.7-.5h6.6c.3 0 .6.2.7.5l.9 3.9 1.1-.1-.6-5.3z"/>
  <circle class="st1" cx="126.3" cy="176.8" r="8.8"/>
  <radialGradient id="SVGID_17_" cx="17.387" cy="1194.903" r="2.609" gradientTransform="matrix(.9549 0 0 .8982 107.15 -896.525)" gradientUnits="userSpaceOnUse">
    <stop offset="0" style="stop-color:#9b643d"/>
    <stop offset="1" style="stop-color:#bf8f68;stop-opacity:0"/>
  </radialGradient>
  <path d="M125.9 177.7c0-.7-1.2-.6-.6-1.7.2-.3.4-1 .6-1.7h.9l-.1 3.4h-.8z" style="fill:url(#SVGID_17_)"/>
  <path class="st20" d="M126.3 185.6c2.2 0 4.2-.8 5.7-2.2-1.3-1-1.6-2.8-.7-4.2l.7-1.2-5.8.3-5.8-.3.7 1.2c.8 1.4.5 3.1-.7 4.2 1.6 1.4 3.6 2.2 5.9 2.2z"/>
  <ellipse class="st40" cx="126.2" cy="174.3" rx="6.7" ry="7.3"/>
  <radialGradient id="SVGID_18_" cx="-597.78" cy="1102.62" r="9.793" gradientTransform="matrix(.8475 0 0 1 628.254 -916)" gradientUnits="userSpaceOnUse">
    <stop offset="0" style="stop-color:#4b4c75"/>
    <stop offset="1" style="stop-color:#6d6fab;stop-opacity:0"/>
  </radialGradient>
  <path d="M121.2 179.1c1.4 1.9 2.5 4.4 5.1 3.7 1.4-.4 2.1-1.5 4.4-.6 0 0-.6-.9-.3-2.7.2-1.3.3-3.3.3-3.3s-12.1-.6-9.5 2.9z" style="fill:url(#SVGID_18_)"/>
  <ellipse class="st13" cx="126.2" cy="175.6" rx="4.7" ry="5.2"/>
  <path d="M122.7 178.2" style="fill:#6f50a1"/>
  <radialGradient id="SVGID_19_" cx="-473.57" cy="-729.257" r="2.122" gradientTransform="matrix(-.9013 .0612 -.0325 -.8392 -324.312 -406.596)" gradientUnits="userSpaceOnUse">
    <stop offset="0" style="stop-color:#9b643d"/>
    <stop offset="1" style="stop-color:#bf8f68;stop-opacity:0"/>
  </radialGradient>
  <path d="M126.3 177.6c0-.2-.1-.4-.3-.5-.3-.2-.8-.5-.3-1.2.2-.3.5-.5.4-2l-2.7-.1-.1 4.5h2.9l.1-.7z" style="fill:url(#SVGID_19_)"/>
  <path class="st58" d="M128.5 175c0 .4-.2.7-.4.7s-.4-.3-.4-.7c0-.4.2-.7.4-.7s.4.4.4.7M124.8 175c0 .4-.2.7-.4.7s-.4-.3-.4-.7c0-.4.2-.7.4-.7s.4.4.4.7"/>
  <path class="st17" d="M127.5 178.2c-.1.5-.5.6-.9.8-.4.1-.8.1-1.1-.3-.1-.1-.1-.2 0-.3l.1-.1h.1c.2 0 .4 0 .7-.1.2 0 .4-.1.6-.2l.1-.1c.1-.1.3 0 .3.1.1.1.1.1.1.2z"/>
  <path class="st20" d="M125.7 167.8s-1.5 1.3 3.2 4.2c2.7 1.7 2.2 4.7 1.6 6.1 0 0 3.4-3.4-.3-7.2-2-2.1-4.5-3.1-4.5-3.1z"/>
  <path class="st40" d="M246.2 34.3c0 .9-.1 1.8-.4 2.6-1.1 3.6-4.4 6.2-8.4 6.2s-7.3-2.6-8.4-6.2c-.2-.8-.4-1.7-.4-2.6 0-4.9 3.9-8.8 8.8-8.8 4.8 0 8.8 3.9 8.8 8.8z"/>
  <path class="st59" d="M244.5 33.8c-.1-.9-.2-1.7-.3-2.6l-.1-1.1c0-.4-.1-.9-.3-1.3-.2-.6-.4-1.3-.8-1.8-.6-1-1.5-1.8-2.5-2.3-.8-.4-1.6-.6-2.4-.6h-1.9c-.8 0-1.6.2-2.4.5-.7.3-1.3.8-1.8 1.3-.5.6-1 1.3-1.3 2-.3.8-.5 1.6-.5 2.5v.7c-.1.9-.2 1.8-.3 2.6-.1.6-.5 1.2-1.3 1.8l.3 1.2c1.1 3.6 4.4 6.2 8.4 6.2s7.3-2.6 8.4-6.2c.1-.3.2-.7.2-1-.8-.6-1.3-1.3-1.4-1.9z"/>
  <path class="st28" d="M237.4 43c1.8 0 3.5-.6 4.9-1.5-.5-.3-.9-.5-1.5-.6-.2 0-.4-.1-.7-.1-.7-.1-1.6-.2-2.7-.2-1.5 0-2.6.2-3.5.4-.5.1-1 .3-1.5.5 1.4.9 3.1 1.5 5 1.5z"/>
  <path class="st60" d="M232.8 32.5h-.3c-.3 0-.6.1-.8.3-.2.2-.3.5-.3.8 0 .3.1.6.3.8.2.2.5.3.8.3h.3v-2.2z"/>
  <radialGradient id="SVGID_20_" cx="237.17" cy="952.375" r="2.646" gradientTransform="translate(0 -916)" gradientUnits="userSpaceOnUse">
    <stop offset="0" style="stop-color:#9a6541;stop-opacity:.8471"/>
    <stop offset="1" style="stop-color:#f9ddbf"/>
  </radialGradient>
  <path d="M237.3 41.4c-1.1 0-1.9-.2-2.4-.6.8-.2 1-1.3 1-3l-.1-2.4h3.1l-.3 2.3c-.1 1.6 0 2.9.9 3.1-.4.3-1.1.5-2.2.6z" style="fill:url(#SVGID_20_)"/>
  <path class="st60" d="M237.2 26.9c1.2 0 2.3.4 3.2 1.2.9.8 1.3 1.8 1.3 3V34c0 1.2-.4 2.1-1.3 2.9-.9.8-1.9 1.2-3.2 1.2-1.2 0-2.3-.4-3.2-1.2-.9-.8-1.3-1.8-1.3-2.9v-3c0-1.2.4-2.1 1.3-3 .9-.7 2-1.1 3.2-1.1z"/>
  <radialGradient id="SVGID_21_" cx="-3392.325" cy="1775.319" r="1.922" gradientTransform="matrix(1 0 0 .9918 3629.166 -1726.915)" gradientUnits="userSpaceOnUse">
    <stop offset="0" style="stop-color:#9a6541;stop-opacity:.8471"/>
    <stop offset="1" style="stop-color:#f9ddbf;stop-opacity:0"/>
  </radialGradient>
  <path d="M237 36.1h-3v-5.5h3v5.5z" style="fill:url(#SVGID_21_)"/>
  <path class="st16" d="M239.4 33c-.1.1-.2.2-.3.2-.1 0-.2-.1-.3-.2-.1-.1-.1-.3-.1-.5s.1-.3.1-.5c.1-.1.2-.2.3-.2.1 0 .2.1.3.2.1.1.1.3.1.5.1.2 0 .4-.1.5zM235 31.9c.1 0 .2.1.3.2.1.1.1.3.1.5s0 .3-.1.5c-.1.1-.2.2-.3.2-.1 0-.2-.1-.3-.2-.1-.1-.1-.3-.1-.5s0-.3.1-.5c.1-.1.2-.2.3-.2z"/>
  <path class="st60" d="M237 34.8l-.2-.2c-.2-.1-.3-.3-.4-.3-.1-.1-.2-.3-.2-.5s.1-.3.2-.4c.3-.3.4-.5.5-.9v-.4c.2.5.2 1.1.2 1.8 0 .3 0 .6-.1.9z"/>
  <path class="st59" d="M241.6 26.5c1.2 2.9 1.8 4.8 1.8 4.9-.5.2-1 .4-1.5.4-.9 0-1.6-.3-2.2-.9-.6-.6-1-1.3-1-2.2h-2.8c0 .8-.4 1.6-1 2.2-.6.6-1.4.9-2.2.9-.6 0-1.1-.1-1.6-.4 0-.1.3-.9 1-2.4l1-2.5h8.5z"/>
  <radialGradient id="SVGID_22_" cx="2320.178" cy="-289.398" r="4.439" gradientTransform="matrix(-1 0 0 -1.0562 2560.063 -281.122)" gradientUnits="userSpaceOnUse">
    <stop offset="0" style="stop-color:#5c2c07;stop-opacity:.8471"/>
    <stop offset="1" style="stop-color:#be906b;stop-opacity:0"/>
  </radialGradient>
  <path d="M237.3 28.4h-2.4v-4.3h2.4v4.3z" style="fill:url(#SVGID_22_)"/>
  <path class="st17" d="M237.3 28.4c0-.2.1-.3.2-.5.1-.1.3-.2.5-.2s.3.1.5.2c.1.1.2.3.2.5v.5h-1.4v-.5zM235.8 28.4c0-.2.1-.3.2-.5.1-.1.3-.2.5-.2s.3.1.5.2c.1.1.2.3.2.5v.5h-1.4v-.5zM236.5 35.9c.4 0 .6 0 .9-.1.3 0 .4-.1.8-.3.1 0 .2 0 .2.1v.1c0 .2 0 .5-.2.7-.2.2-.4.3-.6.4-.5.1-1 0-1.3-.5 0-.1 0-.2.1-.2 0-.2 0-.2.1-.2z"/>
  <path class="st60" d="M241.6 32.5h.3c.3 0 .6.1.8.3.2.2.3.5.3.8 0 .3-.1.6-.3.8-.2.2-.5.3-.8.3h-.3v-2.2z"/>
  <path class="st40" d="M246.2 80.6c0 .9-.1 1.8-.4 2.6-1.1 3.6-4.4 6.2-8.4 6.2s-7.3-2.6-8.4-6.2c-.2-.8-.4-1.7-.4-2.6 0-4.9 3.9-8.8 8.8-8.8 4.8-.1 8.8 3.9 8.8 8.8z"/>
  <path class="st59" d="M244.5 80.1c-.1-.9-.2-1.7-.3-2.6l-.1-1.1c0-.4-.1-.9-.3-1.3-.2-.6-.4-1.3-.8-1.8-.6-1-1.5-1.8-2.5-2.3-.8-.4-1.6-.6-2.4-.6h-1.9c-.8 0-1.6.2-2.4.5-.7.3-1.3.8-1.8 1.3-.5.6-1 1.3-1.3 2-.3.8-.5 1.6-.5 2.5v.7c-.1.9-.2 1.8-.3 2.6-.1.6-.5 1.2-1.3 1.8l.3 1.2c1.1 3.6 4.4 6.2 8.4 6.2s7.3-2.6 8.4-6.2c.1-.3.2-.7.2-1-.8-.6-1.3-1.3-1.4-1.9z"/>
  <path class="st28" d="M237.4 89.3c1.8 0 3.5-.6 4.9-1.5-.5-.3-.9-.5-1.5-.6-.2 0-.4-.1-.7-.1-.7-.1-1.6-.2-2.7-.2-1.5 0-2.6.2-3.5.4-.5.1-1 .3-1.5.5 1.4.9 3.1 1.5 5 1.5z"/>
  <path class="st60" d="M232.8 78.8h-.3c-.3 0-.6.1-.8.3-.2.2-.3.5-.3.8 0 .3.1.6.3.8.2.2.5.3.8.3h.3v-2.2z"/>
  <radialGradient id="SVGID_23_" cx="237.17" cy="998.667" r="2.646" gradientTransform="translate(0 -916)" gradientUnits="userSpaceOnUse">
    <stop offset="0" style="stop-color:#9a6541;stop-opacity:.8471"/>
    <stop offset="1" style="stop-color:#f9ddbf"/>
  </radialGradient>
  <path d="M237.3 87.6c-1.1 0-1.9-.2-2.4-.6.8-.2 1-1.3 1-3l-.1-2.4h3.1l-.3 2.3c-.1 1.6 0 2.9.9 3.1-.4.4-1.1.6-2.2.6z" style="fill:url(#SVGID_23_)"/>
  <path class="st60" d="M237.2 73.2c1.2 0 2.3.4 3.2 1.2.9.8 1.3 1.8 1.3 3v2.9c0 1.2-.4 2.1-1.3 2.9-.9.8-1.9 1.2-3.2 1.2-1.2 0-2.3-.4-3.2-1.2-.9-.8-1.3-1.8-1.3-2.9v-2.9c0-1.2.4-2.1 1.3-3 .9-.8 2-1.2 3.2-1.2z"/>
  <radialGradient id="SVGID_24_" cx="-3392.325" cy="1821.996" r="1.922" gradientTransform="matrix(1 0 0 .9918 3629.166 -1726.915)" gradientUnits="userSpaceOnUse">
    <stop offset="0" style="stop-color:#9a6541;stop-opacity:.8471"/>
    <stop offset="1" style="stop-color:#f9ddbf;stop-opacity:0"/>
  </radialGradient>
  <path d="M237 82.4h-3v-5.5h3v5.5z" style="fill:url(#SVGID_24_)"/>
  <path class="st16" d="M239.4 79.3c-.1.1-.2.2-.3.2-.1 0-.2-.1-.3-.2-.1-.1-.1-.3-.1-.5s.1-.3.1-.5c.1-.1.2-.2.3-.2.1 0 .2.1.3.2.1.1.1.3.1.5.1.2 0 .4-.1.5zM235 78.2c.1 0 .2.1.3.2.1.1.1.3.1.5s0 .3-.1.5c-.1.1-.2.2-.3.2-.1 0-.2-.1-.3-.2-.1-.1-.1-.3-.1-.5s0-.3.1-.5.2-.2.3-.2z"/>
  <path class="st60" d="M237 81l-.2-.2c-.2-.1-.3-.3-.4-.3-.1-.1-.2-.3-.2-.5s.1-.3.2-.4c.3-.3.4-.5.5-.9v-.4c.2.5.2 1.1.2 1.8 0 .4 0 .7-.1.9z"/>
  <path class="st59" d="M241.6 72.8c1.2 2.9 1.8 4.8 1.8 4.9-.5.2-1 .4-1.5.4-.9 0-1.6-.3-2.2-.9-.6-.6-1-1.3-1-2.2h-2.8c0 .8-.4 1.6-1 2.2-.6.6-1.4.9-2.2.9-.6 0-1.1-.1-1.6-.4 0-.1.3-.9 1-2.4l1-2.5h8.5z"/>
  <radialGradient id="SVGID_25_" cx="2320.178" cy="-333.225" r="4.439" gradientTransform="matrix(-1 0 0 -1.0562 2560.063 -281.122)" gradientUnits="userSpaceOnUse">
    <stop offset="0" style="stop-color:#5c2c07;stop-opacity:.8471"/>
    <stop offset="1" style="stop-color:#be906b;stop-opacity:0"/>
  </radialGradient>
  <path d="M237.3 74.6h-2.4v-4.3h2.4v4.3z" style="fill:url(#SVGID_25_)"/>
  <path class="st17" d="M237.3 74.6c0-.2.1-.3.2-.5.1-.1.3-.2.5-.2s.3.1.5.2c.1.1.2.3.2.5v.5h-1.4v-.5zM235.8 74.6c0-.2.1-.3.2-.5.1-.1.3-.2.5-.2s.3.1.5.2c.1.1.2.3.2.5v.5h-1.4v-.5zM236.5 82.2c.4 0 .6 0 .9-.1.3 0 .4-.1.8-.3.1 0 .2 0 .2.1v.1c0 .2 0 .5-.2.7-.2.2-.4.3-.6.4-.5.1-1 0-1.3-.5 0-.1 0-.2.1-.2 0-.2 0-.2.1-.2z"/>
  <path class="st60" d="M241.6 78.8h.3c.3 0 .6.1.8.3.2.2.3.5.3.8 0 .3-.1.6-.3.8-.2.2-.5.3-.8.3h-.3v-2.2z"/>
  <path class="st40" d="M246.2 144.9c0 .9-.1 1.8-.4 2.6-1.1 3.6-4.4 6.2-8.4 6.2s-7.3-2.6-8.4-6.2c-.2-.8-.4-1.7-.4-2.6 0-4.9 3.9-8.8 8.8-8.8 4.8 0 8.8 4 8.8 8.8z"/>
  <path class="st59" d="M244.5 144.5c-.1-.9-.2-1.7-.3-2.6l-.1-1.1c0-.4-.1-.9-.3-1.3-.2-.6-.4-1.3-.8-1.8-.6-1-1.5-1.8-2.5-2.3-.8-.4-1.6-.6-2.4-.6h-1.9c-.8 0-1.6.2-2.4.5-.7.3-1.3.8-1.8 1.3-.5.6-1 1.3-1.3 2-.3.8-.5 1.6-.5 2.5v.7c-.1.9-.2 1.8-.3 2.6-.1.6-.5 1.2-1.3 1.8l.3 1.2c1.1 3.6 4.4 6.2 8.4 6.2s7.3-2.6 8.4-6.2c.1-.3.2-.7.2-1-.8-.7-1.3-1.3-1.4-1.9z"/>
  <path class="st28" d="M237.4 153.7c1.8 0 3.5-.6 4.9-1.5-.5-.3-.9-.5-1.5-.6-.2 0-.4-.1-.7-.1-.7-.1-1.6-.2-2.7-.2-1.5 0-2.6.2-3.5.4-.5.1-1 .3-1.5.5 1.4.9 3.1 1.5 5 1.5z"/>
  <path class="st60" d="M232.8 143.2h-.3c-.3 0-.6.1-.8.3-.2.2-.3.5-.3.8 0 .3.1.6.3.8.2.2.5.3.8.3h.3v-2.2z"/>
  <radialGradient id="SVGID_26_" cx="237.17" cy="1063.041" r="2.646" gradientTransform="translate(0 -916)" gradientUnits="userSpaceOnUse">
    <stop offset="0" style="stop-color:#9a6541;stop-opacity:.8471"/>
    <stop offset="1" style="stop-color:#f9ddbf"/>
  </radialGradient>
  <path d="M237.3 152c-1.1 0-1.9-.2-2.4-.6.8-.2 1-1.3 1-3l-.1-2.4h3.1l-.3 2.3c-.1 1.6 0 2.9.9 3.1-.4.4-1.1.6-2.2.6z" style="fill:url(#SVGID_26_)"/>
  <path class="st60" d="M237.2 137.5c1.2 0 2.3.4 3.2 1.2.9.8 1.3 1.8 1.3 3v2.9c0 1.2-.4 2.1-1.3 2.9-.9.8-1.9 1.2-3.2 1.2-1.2 0-2.3-.4-3.2-1.2-.9-.8-1.3-1.8-1.3-2.9v-2.9c0-1.2.4-2.1 1.3-3 .9-.8 2-1.2 3.2-1.2z"/>
  <radialGradient id="SVGID_27_" cx="-3392.325" cy="1886.906" r="1.922" gradientTransform="matrix(1 0 0 .9918 3629.166 -1726.915)" gradientUnits="userSpaceOnUse">
    <stop offset="0" style="stop-color:#9a6541;stop-opacity:.8471"/>
    <stop offset="1" style="stop-color:#f9ddbf;stop-opacity:0"/>
  </radialGradient>
  <path d="M237 146.8h-3v-5.5h3v5.5z" style="fill:url(#SVGID_27_)"/>
  <path class="st16" d="M239.4 143.7c-.1.1-.2.2-.3.2-.1 0-.2-.1-.3-.2-.1-.1-.1-.3-.1-.5s.1-.3.1-.5c.1-.1.2-.2.3-.2.1 0 .2.1.3.2.1.1.1.3.1.5.1.2 0 .4-.1.5zM235 142.6c.1 0 .2.1.3.2.1.1.1.3.1.5s0 .3-.1.5c-.1.1-.2.2-.3.2-.1 0-.2-.1-.3-.2-.1-.1-.1-.3-.1-.5s0-.3.1-.5.2-.2.3-.2z"/>
  <path class="st60" d="M237 145.4l-.2-.2c-.2-.1-.3-.3-.4-.3-.1-.1-.2-.3-.2-.5s.1-.3.2-.4c.3-.3.4-.5.5-.9v-.4c.2.5.2 1.1.2 1.8 0 .4 0 .7-.1.9z"/>
  <path class="st59" d="M241.6 137.2c1.2 2.9 1.8 4.8 1.8 4.9-.5.2-1 .4-1.5.4-.9 0-1.6-.3-2.2-.9-.6-.6-1-1.3-1-2.2h-2.8c0 .8-.4 1.6-1 2.2-.6.6-1.4.9-2.2.9-.6 0-1.1-.1-1.6-.4 0-.1.3-.9 1-2.4l1-2.5h8.5z"/>
  <radialGradient id="SVGID_28_" cx="2320.178" cy="-394.171" r="4.439" gradientTransform="matrix(-1 0 0 -1.0562 2560.063 -281.122)" gradientUnits="userSpaceOnUse">
    <stop offset="0" style="stop-color:#5c2c07;stop-opacity:.8471"/>
    <stop offset="1" style="stop-color:#be906b;stop-opacity:0"/>
  </radialGradient>
  <path d="M237.3 139h-2.4v-4.3h2.4v4.3z" style="fill:url(#SVGID_28_)"/>
  <path class="st17" d="M237.3 139c0-.2.1-.3.2-.5.1-.1.3-.2.5-.2s.3.1.5.2c.1.1.2.3.2.5v.5h-1.4v-.5zM235.8 139c0-.2.1-.3.2-.5.1-.1.3-.2.5-.2s.3.1.5.2c.1.1.2.3.2.5v.5h-1.4v-.5zM236.5 146.6c.4 0 .6 0 .9-.1.3 0 .4-.1.8-.3.1 0 .2 0 .2.1v.1c0 .2 0 .5-.2.7-.2.2-.4.3-.6.4-.5.1-1 0-1.3-.5 0-.1 0-.2.1-.2 0-.2 0-.2.1-.2z"/>
  <path class="st60" d="M241.6 143.2h.3c.3 0 .6.1.8.3.2.2.3.5.3.8 0 .3-.1.6-.3.8-.2.2-.5.3-.8.3h-.3v-2.2z"/>
  <path class="st40" d="M135 53.6c0 .9-.1 1.8-.4 2.6-1.1 3.6-4.4 6.2-8.4 6.2s-7.3-2.6-8.4-6.2c-.2-.8-.4-1.7-.4-2.6 0-4.9 3.9-8.8 8.8-8.8 4.8 0 8.8 3.9 8.8 8.8z"/>
  <path class="st59" d="M133.3 53.1c-.1-.9-.2-1.7-.3-2.6l-.1-1.1c0-.4-.1-.9-.3-1.3-.2-.6-.4-1.3-.8-1.8-.6-1-1.5-1.8-2.5-2.3-.8-.4-1.6-.6-2.4-.6H125c-.8 0-1.6.2-2.4.5-.7.3-1.3.8-1.8 1.3-.5.6-1 1.3-1.3 2-.3.8-.5 1.6-.5 2.5v.7c-.1.9-.2 1.8-.3 2.6-.1.6-.5 1.2-1.3 1.8l.3 1.2c1.1 3.6 4.4 6.2 8.4 6.2s7.3-2.6 8.4-6.2c.1-.3.2-.7.2-1-.8-.6-1.3-1.3-1.4-1.9z"/>
  <path class="st28" d="M126.2 62.4c1.8 0 3.5-.6 4.9-1.5-.5-.3-.9-.5-1.5-.6-.2 0-.4-.1-.7-.1-.7-.1-1.6-.2-2.7-.2-1.5 0-2.6.2-3.5.4-.5.1-1 .3-1.5.5 1.4.9 3.1 1.5 5 1.5z"/>
  <path class="st60" d="M121.6 51.8h-.3c-.3 0-.6.1-.8.3-.2.2-.3.5-.3.8 0 .3.1.6.3.8.2.2.5.3.8.3h.3v-2.2z"/>
  <radialGradient id="SVGID_29_" cx="125.97" cy="971.715" r="2.646" gradientTransform="translate(0 -916)" gradientUnits="userSpaceOnUse">
    <stop offset="0" style="stop-color:#9a6541;stop-opacity:.8471"/>
    <stop offset="1" style="stop-color:#f9ddbf"/>
  </radialGradient>
  <path d="M126.1 60.7c-1.1 0-1.9-.2-2.4-.6.8-.2 1-1.3 1-3l-.1-2.4h3.1l-.3 2.3c-.1 1.6 0 2.9.9 3.1-.4.3-1.1.5-2.2.6z" style="fill:url(#SVGID_29_)"/>
  <path class="st60" d="M126 46.2c1.2 0 2.3.4 3.2 1.2.9.8 1.3 1.8 1.3 3v2.9c0 1.2-.4 2.1-1.3 2.9-.9.8-1.9 1.2-3.2 1.2-1.2 0-2.3-.4-3.2-1.2-.9-.8-1.3-1.8-1.3-2.9v-2.9c0-1.2.4-2.1 1.3-3 .9-.8 2-1.2 3.2-1.2z"/>
  <radialGradient id="SVGID_30_" cx="-3503.525" cy="1794.82" r="1.922" gradientTransform="matrix(1 0 0 .9918 3629.166 -1726.915)" gradientUnits="userSpaceOnUse">
    <stop offset="0" style="stop-color:#9a6541;stop-opacity:.8471"/>
    <stop offset="1" style="stop-color:#f9ddbf;stop-opacity:0"/>
  </radialGradient>
  <path d="M125.8 55.4h-3V50h3v5.4z" style="fill:url(#SVGID_30_)"/>
  <path class="st16" d="M128.2 52.4c-.1.1-.2.2-.3.2-.1 0-.2-.1-.3-.2-.1-.1-.1-.3-.1-.5s.1-.3.1-.5c.1-.1.2-.2.3-.2.1 0 .2.1.3.2.1.1.1.3.1.5.1.2 0 .3-.1.5zM123.8 51.2c.1 0 .2.1.3.2.1.1.1.3.1.5s0 .3-.1.5c-.1.1-.2.2-.3.2-.1 0-.2-.1-.3-.2-.1-.1-.1-.3-.1-.5s0-.3.1-.5c.1-.1.2-.2.3-.2z"/>
  <path class="st60" d="M125.8 54.1l-.2-.2c-.2-.1-.3-.3-.4-.3-.1-.1-.2-.3-.2-.5s.1-.3.2-.4c.3-.3.4-.5.5-.9v-.4c.2.5.2 1.1.2 1.8 0 .3 0 .6-.1.9z"/>
  <path class="st59" d="M130.4 45.9c1.2 2.9 1.8 4.8 1.8 4.9-.5.2-1 .4-1.5.4-.9 0-1.6-.3-2.2-.9-.6-.6-1-1.3-1-2.2h-2.8c0 .8-.4 1.6-1 2.2-.6.6-1.4.9-2.2.9-.6 0-1.1-.1-1.6-.4 0-.1.3-.9 1-2.4l1-2.5h8.5z"/>
  <radialGradient id="SVGID_31_" cx="2431.378" cy="-307.708" r="4.439" gradientTransform="matrix(-1 0 0 -1.0562 2560.063 -281.122)" gradientUnits="userSpaceOnUse">
    <stop offset="0" style="stop-color:#5c2c07;stop-opacity:.8471"/>
    <stop offset="1" style="stop-color:#be906b;stop-opacity:0"/>
  </radialGradient>
  <path d="M126.1 47.7h-2.4v-4.3h2.4v4.3z" style="fill:url(#SVGID_31_)"/>
  <path class="st17" d="M126.1 47.7c0-.2.1-.3.2-.5.1-.1.3-.2.5-.2s.3.1.5.2c.1.1.2.3.2.5v.5h-1.4v-.5zM124.6 47.7c0-.2.1-.3.2-.5.1-.1.3-.2.5-.2s.3.1.5.2c.1.1.2.3.2.5v.5h-1.4v-.5zM125.3 55.3c.4 0 .6 0 .9-.1.3 0 .4-.1.8-.3.1 0 .2 0 .2.1v.1c0 .2 0 .5-.2.7-.2.2-.4.3-.6.4-.5.1-1 0-1.3-.5 0-.1 0-.2.1-.2 0-.2 0-.2.1-.2z"/>
  <path class="st60" d="M130.4 51.9h.3c.3 0 .6.1.8.3.2.2.3.5.3.8 0 .3-.1.6-.3.8-.2.2-.5.3-.8.3h-.3v-2.2z"/>
  <path class="st0" d="M537.5 73.5H404.4c-.9 0-1.6-.7-1.6-1.6V29.4c0-.9.7-1.6 1.6-1.6h133.1c.9 0 1.6.7 1.6 1.6v42.5c0 .9-.7 1.6-1.6 1.6z"/>
  <path class="st0" d="M466.9 73.5h-63.4c-.4 0-.8-.7-.8-1.6V29.4c0-.9.3-1.6.8-1.6h63.4v45.7z"/>
  <path class="st40" d="M446.2 43.9h51.7v5.4h-51.7zM446.2 53.5h44.5v3.6h-44.5zM506.7 44.8h8.7v3.6h-8.7z"/>
  <path class="st6" d="M536.1 17h-.3c-.6-.1-1-.7-.8-1.3l1.7-7c.1-.6.7-1 1.3-.8.6.1 1 .7.8 1.3l-1.7 7c0 .4-.5.8-1 .8zM518.7 17.8c-.5 0-.9-.3-1.1-.8l-2.2-6.5c-.2-.6.1-1.2.7-1.4.6-.2 1.2.1 1.4.7l2.2 6.5c.2.6-.1 1.2-.7 1.4 0 .1-.2.1-.3.1zM550.7 24.5c-.3 0-.7-.1-.9-.4-.4-.5-.3-1.2.2-1.6l6.1-4.7c.5-.4 1.2-.3 1.6.2.4.5.3 1.2-.2 1.6l-6.1 4.7c-.2.1-.4.2-.7.2zM553.8 40c-.6 0-1-.4-1.1-1-.1-.6.4-1.2 1-1.2l7.9-.9c.6-.1 1.2.4 1.2 1 .1.6-.4 1.2-1 1.2l-7.9.9h-.1z"/>
  <ellipse transform="rotate(-59.987 64.56 84.374)" class="st14" cx="64.6" cy="84.4" rx="29.9" ry="31"/>
  <path class="st14" d="M77.6 26.5c2.3 10 5.4 26 14.8 46.1-13.2 5.6-37.3 5-55.4-2.6 4.9-9.8 8.8-26.6 7.6-37.6.3-2.1 32.5-8.4 33-5.9z"/>
  <path class="st9" d="M44.4 63h8v27h-8z"/>
  <path class="st17" d="M17.7 88.6c.1.1 1.8 1.7 2.8 2.6.4.4 1 .6 1.6.5l7.2-.6 1.9-.2v-2.8l-13.5.5z"/>
  <path class="st9" d="M49.1 94.7l-19.8-3.5v-3.7h19.8z"/>
  <circle class="st9" cx="54.1" cy="62.8" r="9.8"/>
  <ellipse class="st73" cx="62.3" cy="113.7" rx="21.7" ry="20.3"/>
  <path class="st73" d="M41.8 107c-11.9 19.2 1.1 118.2 1.3 129.5 0 1.1-.6 2.2-1.6 2.7l-6.1 2.7c-.7.5-.4 1.6.5 1.6h9.8c1.1 0 1.9-.9 2-1.9l17-116.9c-.1-.1-16.1-28.9-22.9-17.7z"/>
  <path class="st73" d="M41.8 107c-11.9 19.2 1.1 118.2 1.3 129.5 0 1.1-.6 2.2-1.6 2.7l-6.1 2.7c-.7.5-.4 1.6.5 1.6h9.8c1.1 0 1.9-.9 2-1.9L63.2 134s-5.5-5.5-10.9-12.5c-3.5-4.6-7.4-9.8-10.5-14.5z"/>
  <path class="st9" d="M82.8 107h-41l4.9-12.4c2.3-11-1.2-25.1-1.2-25.1l33.2 3.7s-3.6 8.9-.8 21.4l4.9 12.4z"/>
  <ellipse transform="rotate(-7.313 61.461 30.963)" class="st14" cx="61.5" cy="31" rx="16.8" ry="18.6"/>
  <ellipse transform="rotate(-6.459 50.908 39.651)" class="st36" cx="50.9" cy="39.7" rx="2.1" ry="2.2"/>
  <path class="st17" d="M59.5 39.2H67v13h-7.5z"/>
  <radialGradient id="SVGID_32_" cx="1760.972" cy="714.88" r="8.345" gradientTransform="matrix(-1 0 0 1.1284 1823.513 -764.612)" gradientUnits="userSpaceOnUse">
    <stop offset="0" style="stop-color:#9b643d"/>
    <stop offset=".882" style="stop-color:#ba8a63;stop-opacity:.1178"/>
    <stop offset="1" style="stop-color:#bf8f68;stop-opacity:0"/>
  </radialGradient>
  <path style="fill:url(#SVGID_32_)" d="M59.5 39.2h7.4v13h-7.4z"/>
  <ellipse transform="rotate(-7.313 60.086 31.283)" class="st17" cx="60.1" cy="31.3" rx="11.1" ry="13.5"/>
  <ellipse transform="rotate(-6.459 63.63 30.636)" class="st16" cx="63.6" cy="30.6" rx="1" ry="1.7"/>
  <radialGradient id="SVGID_33_" cx="1931.61" cy="923.272" r="5.405" gradientTransform="matrix(-.9795 .2016 .2125 1.0326 1753.75 -1307.713)" gradientUnits="userSpaceOnUse">
    <stop offset="0" style="stop-color:#9b643d"/>
    <stop offset=".882" style="stop-color:#ba8a63;stop-opacity:.1178"/>
    <stop offset="1" style="stop-color:#bf8f68;stop-opacity:0"/>
  </radialGradient>
  <path d="M58.5 24.1l.3 4.5c.1 2.3-.9 4-1.7 5-.4.5-.5 1.8.2 2.4.4.3 1.9 1 2 2.1l.4 4.1-8.3 1.1-2-18.3 9.1-.9z" style="fill:url(#SVGID_33_)"/>
  <path class="st15" d="M58.9 38.9c.4 0 .7 0 1.1-.1.3-.1.7-.2 1-.3.3-.1.7-.3 1-.4.3-.2.6-.3.9-.5l.1-.1c.1-.1.3-.1.4 0l.1.1c.2.7-.2 1.3-.5 1.7-.4.4-.9.7-1.4.9-.5.2-1.1.3-1.7.2-.6-.1-1.2-.4-1.5-.9-.1-.2 0-.4.1-.5.2-.1.2-.1.4-.1z"/>
  <path class="st14" d="M47.6 21.8s2.5.9 5.3-1.2c2.7-2 4.7.3 6.1 1.9 3 3.4 7.7 6.2 11.9 5.1 3-.8 2.5-10.7-6.8-12.8-9.8-2.2-16.5 7-16.5 7z"/>
  <path class="st17" d="M67.5 34.6l4.3-.6c1.7-.2 3-1.8 2.7-3.5v-.2c-.2-1.7-1.8-3-3.5-2.7l-4.3.6.8 6.4z"/>
  <path class="st73" d="M82.8 107c10.1 24.1 4.6 75.7-9.4 129.3-.3 1.2.3 2.5 1.5 3l5.9 2.2c1 .6.6 2.1-.6 2.1H69.7c-1.1 0-2-.9-2.1-2L62 118.4s14.3-9.7 20.8-11.4z"/>
  <ellipse transform="rotate(-6.459 72.484 35.93)" class="st36" cx="72.5" cy="35.9" rx="2.1" ry="2.2"/>
  <circle class="st9" cx="62.3" cy="68.4" r="17"/>
  <radialGradient id="SVGID_34_" cx="81.404" cy="1005.068" r="25.323" gradientTransform="translate(0 -916)" gradientUnits="userSpaceOnUse">
    <stop offset="0" style="stop-color:#e3646a"/>
    <stop offset="1" style="stop-color:#e3646a;stop-opacity:0"/>
  </radialGradient>
  <path d="M41.8 107h41l-4.9-12.4c-1.7-7.6-1-13.8-.2-17.6 1.2-2.5 1.7-5.4 1.7-8.6 0-9.4-7.6-17-17-17s-17 7.6-17 17c0 2.2.4 4.2 1.1 6.1.8 5.1 1.6 13.2.2 20L41.8 107z" style="fill:url(#SVGID_34_)"/>
  <path class="st9" d="M51.3 86s28 16.7 37.6 3.1c4.9-6.9 1.8-31-16.6-37-11.3 2.4-5.8 12.7-5.8 12.7s10.6 3.4 12.9 15.5c1.6 8.3-27.9 2.3-27.9 2.3l-.2 3.4z"/>
  <path class="st17" d="M51.3 86l-6.1-2.2-1.1-.3c-.5 0-.9.3-1.1.7l-.8 1.3-1.8-1.1.6-2c.2-.6.6-1 1.1-1.2l1.7-1-1.8.5-1.5 1.2h-1.4l2.7-2.6 2.4-.4c.4-.1.7 0 1 .2l6.2 3.5-.1 3.4z"/>
  <path class="st77" d="M44 85.9H7.4c-.5 0-1-.3-1.1-.8L0 63.1c-.2-.7.3-1.5 1.1-1.5h36.5c.5 0 1 .3 1.1.8L45 84.3c.3.9-.3 1.6-1 1.6zM51.3 89.2H8.1c-.9 0-1.6-.7-1.6-1.6 0-.9.7-1.6 1.6-1.6h43.1c.9 0 1.6.7 1.6 1.6.1.8-.6 1.6-1.5 1.6z"/>
  <path class="st17" d="M66.9 47.1s0 3.5 4.6 4.8l-5.2 1.4.6-6.2zM59.5 46.7v2.8c0 1.2-.9 2.3-2.1 2.6l-5.1 1.1 8.1-.2-.9-6.3z"/>
  <path class="st17" d="M53 53.1s.1 0 0 0c.2.1.2.1.3.1.2.1.5.2.8.3 1.4.5 3.1.8 5 .9 1.4.1 2.9.2 4.5.1s3.1-.2 4.5-.5c.8-.2 1.6-.3 2.4-.5 1-.3 1.9-.6 2.7-.9-.6-.2-1.1-.4-1.7-.6-.4-.1-.8-.3-1.2-.4-1.5-.6-2.3-1.6-2.8-2.4-.2 0-.4-.1-.6-.1h-.2c-.3 0-.5-.1-.8-.1-1.1-.1-2.2-.1-3.3-.1-.8 0-1.5.1-2.2.2-.2 0-.4.1-.6.1-.1 0-.2 0-.3.1v.3c0 1.2-.9 2.3-2.1 2.6l-4.4.9z"/>
  <ellipse transform="rotate(-8.169 54.341 31.835)" class="st16" cx="54.3" cy="31.8" rx="1" ry="1.7"/>
  <path class="st43" d="M412.5 219.2s.5 23.9 4.5 29.5h6.6c4-5.6 4.5-29.5 4.5-29.5h-15.6z"/>
  <path class="st43" d="M428.2 222.4h-15.9c-.9 0-1.6-.7-1.6-1.6 0-.9.7-1.6 1.6-1.6h15.9c.9 0 1.6.7 1.6 1.6 0 .9-.7 1.6-1.6 1.6z"/>
  <path class="st38" d="M412.6 222.4c.3 6.7 1.3 21.9 4.4 26.3h6.6c3.1-4.3 4.1-19.6 4.4-26.3h-15.4z"/>
  <linearGradient id="SVGID_35_" gradientUnits="userSpaceOnUse" x1="406.291" y1="1151.373" x2="405.165" y2="1146.4" gradientTransform="translate(0 -916)">
    <stop offset="0" style="stop-color:#c8c6c4"/>
    <stop offset="1" style="stop-color:#e1dfdd"/>
  </linearGradient>
  <path d="M406.5 235.7c-2.5-1.4-3.3-4.5-1.9-7 2.5 1.4 3.3 4.5 1.9 7z" style="fill:url(#SVGID_35_)"/>
  <path class="st77" d="M406.5 235.7c-2.8 0-5.1-2.3-5.1-5.1 2.8-.1 5.1 2.2 5.1 5.1z"/>
  <path class="st36" d="M406.6 236.4v.2-.2c-3.7-2.9-8.9-.1-7.8 4.5.8 3.5 3.2 7.8 6.2 7.8h3.2c3 0 5.4-4.3 6.2-7.8 1-4.6-4.2-7.4-7.8-4.5z"/>
  <circle class="st9" cx="410.8" cy="238.5" r="1.7"/>
  <circle class="st6" cx="424.4" cy="51.5" r="10.2"/>
  <path class="st9" d="M434.3 53.7h-19.8c1 4.6 5.1 8 9.9 8 4.8 0 8.9-3.4 9.9-8z"/>
  <path class="st13" d="M416.5 47l-.1 4.9c0 1-.8 1.8-1.8 1.8l4.2 2.3c3.6 1.7 7.8 1.6 11.3-.1l3.8-2.2c-1 0-1.9-.8-1.9-1.9v-5.5l-15.5.7z"/>
  <radialGradient id="SVGID_36_" cx="515.696" cy="-1075.183" r="9.25" gradientTransform="matrix(1 0 0 -.7538 -91.426 -761.77)" gradientUnits="userSpaceOnUse">
    <stop offset="0" style="stop-color:#591c17"/>
    <stop offset=".545" style="stop-color:#7b422b;stop-opacity:.4543"/>
    <stop offset="1" style="stop-color:#9b643d;stop-opacity:0"/>
  </radialGradient>
  <path style="fill:url(#SVGID_36_)" d="M416.5 47l.1 9 15.5-.1v-9.5z"/>
  <circle class="st13" cx="416.9" cy="45.1" r="1.6"/>
  <path class="st13" d="M423.6 52.6h1.4c3.9 0 7.1-3.2 7.1-7.2v-.8c0-3.9-3.2-7.1-7.2-7.1h-1.4c-3.9 0-7.1 3.2-7.1 7.2v.8c0 3.9 3.3 7.1 7.2 7.1z"/>
  <radialGradient id="SVGID_37_" cx="2298.874" cy="1244.745" r="3.802" gradientTransform="matrix(-.9825 0 0 .7951 2683.3 -944.263)" gradientUnits="userSpaceOnUse">
    <stop offset="0" style="stop-color:#9b643d"/>
    <stop offset="1" style="stop-color:#e0bb95;stop-opacity:0"/>
  </radialGradient>
  <path d="M424.4 40.5c-.1 3.1.9 3.8 1.3 4.4.4.6.1 1.2-.6 1.5-.1 0-.2.1-.3.2-.2.1-.4.4-.4.7l-.2 5 6.9-.4-.4-10.8c.1 0-6.2-2.6-6.3-.6z" style="fill:url(#SVGID_37_)"/>
  <circle class="st13" cx="431.6" cy="45.1" r="1.6"/>
  <ellipse class="st16" cx="427.1" cy="44.2" rx=".5" ry=".9"/>
  <ellipse class="st16" cx="421.5" cy="44.2" rx=".5" ry=".9"/>
  <path d="M422.5 47.8h.1l3.2.4h.1c.2.1.3.2.2.4-.3.9-1.2 1.5-2.1 1.3-1-.1-1.7-.9-1.8-1.8-.1-.1.1-.3.3-.3z" style="opacity:.6;fill:#231f20;enable-background:new"/>
  <path d="M425.8 48.2s-.1 0 0 0l-3.2-.4h-.1c-.2 0-.4.1-.4.3.4.1 1.1.3 1.9.4.8.1 1.5.1 2 .1 0-.2-.1-.3-.2-.4z" style="fill:#f8f8f8"/>
  <g>
    <path class="st83" d="M342.8 153s-1.5.2-2.5.5c-1.8.5-2.8 1.4-2.7 1.8 0 .3.3.5.3.5s-.6.6.3.6 2.2-.7 3.2-.6 2.2.5 3.3.1c1.1-.4.6-2 .6-2l-2.5-.9z"/>
    <g class="st84">
      <path class="st85" d="M396.1 119.7c0 1 .7 1.7 1.6 1.7l1.6-.2-.5-3.1-1.2-.1c-1 0-1.5.8-1.5 1.7z"/>
      <path class="st85" d="M398.2 121c0 .2.1.3.3.3 0 0 1-.3 2 0 .3.1.5-.1.5-.3 0-.2-.1-.3-.3-.3h-2.2c-.2-.1-.3.1-.3.3zM398.6 119.1c0 .2.1.3.3.3h2.5c.2 0 .3-.1.3-.3 0-.2-.1-.3-.3-.3h-2.5c-.2-.1-.3.1-.3.3zM396.9 118.4c0 .2.1.3.3.3h2.5c.2 0 .3-.1.3-.3 0-.2-.1-.3-.3-.3h-2.5c-.1 0-.3.2-.3.3z"/>
      <g class="st86">
        <path class="st13" d="M398.6 119.7c0 .2.1.3.3.3-.2 0-.3.1-.3.3 0 .2.1.3.3.3h2.5c.2 0 .3-.1.3-.3 0-.2.2-.5.2-.6 0-.2-.1-.3-.3-.3h-2.7c-.2 0-.3.1-.3.3z"/>
      </g>
    </g>
    <linearGradient id="SVGID_38_" gradientUnits="userSpaceOnUse" x1="168.264" y1="-322.067" x2="196.497" y2="-325.935" gradientTransform="scale(1 -1) rotate(24.035 -102.565 253.285)">
      <stop offset="0" style="stop-color:#706f6e"/>
      <stop offset=".123" style="stop-color:#8c8b8a"/>
      <stop offset=".301" style="stop-color:#afaeac"/>
      <stop offset=".469" style="stop-color:#c8c7c4"/>
      <stop offset=".622" style="stop-color:#d8d6d3"/>
      <stop offset=".745" style="stop-color:#dddbd8"/>
    </linearGradient>
    <path d="M377.4 145.2l12.9-5c7.1-2.2 10.3 3.3 11 7.5l4.2 21.4c.7.7 4.2.1 4.2.1 1.4-.2 1.7.9.8 1.3l-6.8 2.8c-.4.2-1 0-1.3-.4l-.6-1.7-8-18c-.3-.6-.5-1.5-1.1-1.2l-10.2 3.4c-2.4 1.1-7.6 1.8-9.5-3.5-.9-3.2 2.3-5.8 4.4-6.7z" style="display:none;fill:url(#SVGID_38_)"/>
    <path class="st88" d="M394.7 121.6c.5.1.4.3.4.3s.9-.2.9 0c.1.4-1 .9-2 1.3-1 .5-1.5 1.1-1.6 1.5-.2.7-1.3 2.1-2.1 2-.1 0-1 1.4-1.7 1.7-.9.5-2.4-2.1-1.3-2.5 1.5-.6 1.5-1.9 4.4-3.9.8-.4 2.7-.5 3-.4zM338.6 155.1c-.2.4 0 .5 0 .5s-.8.5-.7.6c.2.3 1.4-.1 2.3-.5 1.1-.4 1.7-.1 2.2-.1 3.1.5 3.5-2.2 2.4-2.6-1.5-.6-.4-.4-3.9.3-.8.2-2.2 1.6-2.3 1.8z"/>
    <circle class="st89" cx="369.6" cy="150.4" r="8.5"/>
    <path class="st89" d="M370 147.6l13.3-3.5c7.2-2 9.2 4.3 8.9 9.1l-.8 23.4c.5.8 4.1-.3 4.1-.3 1.4-.2 1.5 1.1.5 1.5l-7.2 3.3c-.5.2-1 0-1.1-.5l-.2-1.9-3.7-21.1c-.1-.7-.1-1.7-.8-1.5l-11.2 2.7c-3.1.8-6.1-1.5-6.8-4.2-1-3.2 2.7-6.1 5-7z"/>
    <linearGradient id="SVGID_39_" gradientUnits="userSpaceOnUse" x1="145.231" y1="-302.668" x2="174.221" y2="-287.32" gradientTransform="scale(1 -1) rotate(24.035 -102.565 253.285)">
      <stop offset="0" style="stop-color:#515285"/>
      <stop offset="1" style="stop-color:#6465a3"/>
    </linearGradient>
    <path d="M357.2 115c2.7-2.4 10.8-5.4 16.3-2.4 2 1.1 7.4 6.3 7.1 15.9-.4 11.1.7 15.3.7 15.3l-19.8 8.8s-4-7.4-7.3-18c-3.8-12.1.8-17.7 3-19.6z" style="display:none;fill:url(#SVGID_39_)"/>
    <path class="st89" d="M361.4 152.6s1.4 6.1 6.6 5.9c5.2-.1 13.8 0 13.8 0l8.3-12 2.7 12 9.2.1s-1.9-1.5-5.4-4c-1.1-5.3 3.4-15.8-6.5-17.4-9.8-1.5-20 11.3-20 11.3l-8.7 4.1z"/>
    <path transform="rotate(-45.001 386.14 144.224)" style="display:none;fill:#c8c6c4" d="M371 138.3h30.2v11.9H371z"/>
    <path d="M386.3 132.3c1.8.3 2.1-1.6 3.2-2.1 1.5-.7 4.2-1.7 4.1-2.1 0-.2-1.2-.1-1.2-.1s.9-.3.8-.5c-.1-.2-1.9-.1-2.5-.2.5-.3 1.8-1.1 1.6-1.4-.1-.2-1.8.8-3.1 1.3-4 2.2-4.7 2.8-6.5 3.8-1 .6.3 3.9 1.2 3.1 1.7-1.5 2.4-1.8 2.4-1.8z" style="display:none;fill:#dcb38b"/>
    <path d="M368.8 133.4c-2-.7-3.5-5.9-4.1-9-.8-5.3-4.5-7.5-7.1-7.1-3.2.5-5.6 4.3-5.6 8.1 0 2.5 2.2 10.7 4.1 13.8 2.3 3.6 4.9 5.1 9.6 4.1 8.8-1.9 18.8-9.6 18.8-9.6s-.8-3.2-.9-3.2c-5.9 1.6-9.5 4.7-14.8 2.9z" style="display:none;fill:#6465a3"/>
    <path class="st94" d="M350.6 121.1l-9 31.7h3.9l16.2-27.4z"/>
    <path class="st94" d="M354.3 115.1s-7.8 6.3-10.3 19.2c-1.6 7.9-1.4 18.8-1.4 18.8s.2.6 1.2.9c1 .2 1.6-.2 1.6-.2s3.7-11.1 6.4-16.2c2.6-5.1 10-12.3 10-12.3l-7.5-10.2z"/>
    <path class="st95" d="M387 140.1l-12.7 13.2c-3.1 3.1-8.2 3.1-11.3 0l-2.7-2.7 26.3-25.6.4 15.1z"/>
    <path class="st95" d="M386.6 125l13 27.3c.3.6.6 1 1 1.2l2.4 1.3c.4.2.2.8-.2.8H398c-.7 0-1.3-.6-1.4-1.3L382.1 137l4.5-12z"/>
    <path class="st83" d="M343.3 155.1s-1.3 1.2-1.9 1.3c-.6.1-.4.6.1.6s3.1-.3 3.6-1.9c.6-1.5-1.8 0-1.8 0z"/>
    <path class="st94" d="M381.2 130.1s-11.4 6.1-16.4 4.3c-5.9-2.1-4.4-9.6-5.4-13.2-.9-3.3-2.7-7.9-5.3-5.9-5.6 4.5-5.9 11.1-4.2 16.8 2.1 7 5.7 14.1 16 13 10.2-1.1 17.7-12.1 17.7-12.1l-2.4-2.9z"/>
    <radialGradient id="SVGID_40_" cx="612.996" cy="338.586" r="8.003" gradientTransform="matrix(.1177 .993 1.7119 -.2029 -291.572 -400.188)" gradientUnits="userSpaceOnUse">
      <stop offset="0" style="stop-color:#6264a7"/>
      <stop offset=".878" style="stop-color:#8b8cc7"/>
    </radialGradient>
    <path d="M352.1 136.3c1.7 7.8 8.2 14.2 8.2 14.2l18.4-10.5s-.3-2.9-.4-6.4c-8.4 4.7-12.3 7.1-26.2 2.7z" style="display:none;fill:url(#SVGID_40_)"/>
    <path class="st94" d="M359.5 114s-12-1.4-12.2 11.3c-.1 11.6 6.4 19 13.4 19.1 11.4.2 19.7-11.3 19.7-11.3l-4.7-3s-4.3 7-12.6 5.1c-6.7-1.6-3.6-21.2-3.6-21.2z"/>
    <g class="st84">
      <g class="st86" transform="matrix(1.04224 .24425 -.24425 1.04224 -158.1 -258.9)">
        <path class="st13" d="M572.4 236.8l1.1 1.1 2.1-.8c.5-.2.9-.4 1.4-.7.4-.3.8-.5 1-.7l.8-.8c.3-.4.5-.6.6-.7.1-.2 0-.5-.2-.7.1-.1.2-.3.3-.5.1-.2.1-.3.1-.4-.1-.3-.3-.3-.5-.2l-3 1.7.3-.6c.2-.5.3-.8.4-1.1.1-.2 0-.4-.1-.4-.1-.1-.3 0-.5.2-.5.5-.9 1-1.3 1.5-.2.3-.5.7-.9 1.2l-1.6 1.9z" id="Layer1_2_FILL_11_"/>
      </g>
    </g>
  </g>
</svg>
